<?xml version="1.0" encoding="UTF-8" standalone="no"?>
<!-- Created with Inkscape (http://www.inkscape.org/) -->

<svg
   xmlns:dc="http://purl.org/dc/elements/1.1/"
   xmlns:cc="http://creativecommons.org/ns#"
   xmlns:rdf="http://www.w3.org/1999/02/22-rdf-syntax-ns#"
   xmlns:svg="http://www.w3.org/2000/svg"
   xmlns="http://www.w3.org/2000/svg"
   xmlns:sodipodi="http://sodipodi.sourceforge.net/DTD/sodipodi-0.dtd"
   xmlns:inkscape="http://www.inkscape.org/namespaces/inkscape"
   width="2600px"
   height="800px"
   viewBox="0 0 2600 800"
   version="1.1"
   id="SVGRoot"
   inkscape:version="0.92.4 (5da689c313, 2019-01-14)"
   sodipodi:docname="layer-0.svg">
  <defs
     id="defs5137" />
  <sodipodi:namedview
     id="base"
     pagecolor="#ffffff"
     bordercolor="#666666"
     borderopacity="1.0"
     inkscape:pageopacity="0.0"
     inkscape:pageshadow="2"
     inkscape:zoom="1.1139651"
     inkscape:cx="1025.3133"
     inkscape:cy="271.9372"
     inkscape:document-units="px"
     inkscape:current-layer="layer1"
     showgrid="false"
     inkscape:window-width="1920"
     inkscape:window-height="1017"
     inkscape:window-x="-8"
     inkscape:window-y="-8"
     inkscape:window-maximized="1" />
  <metadata
     id="metadata5140">
    <rdf:RDF>
      <cc:Work
         rdf:about="">
        <dc:format>image/svg+xml</dc:format>
        <dc:type
           rdf:resource="http://purl.org/dc/dcmitype/StillImage" />
        <dc:title></dc:title>
      </cc:Work>
    </rdf:RDF>
  </metadata>
  <g
     inkscape:label="Layer 1"
     inkscape:groupmode="layer"
     id="layer1">
    <path
       style="fill:#251b13;stroke-width:1.00021386;fill-opacity:1"
       d="m 0,753.80604 v -46.1944 l 18.30802,-18.5833 c 18.8149,-19.09787 26.21216,-28.68555 35.56414,-46.09512 6.77375,-12.60997 8.88919,-19.48354 10.03654,-32.61131 1.36139,-15.57698 2.76363,-50.79541 4.59674,-115.45194 0.81902,-28.88739 1.9903,-63.61184 2.60288,-77.16549 l 1.11375,-24.64301 -2.53394,-4.3694 c -1.39367,-2.40313 -3.56757,-7.97091 -4.83088,-12.37277 -2.15887,-7.52243 -2.78661,-8.51456 -10.44454,-16.50709 -4.48116,-4.67701 -8.93011,-10.03702 -9.88652,-11.91118 -2.11223,-4.139 -3.44187,-17.799 -3.49047,-35.85921 l -0.034,-13.25567 h 3.86884 c 2.12783,0 13.26534,-1.41597 24.74997,-3.14661 17.86711,-2.69235 23.84024,-3.16169 41.38118,-3.25138 l 20.50001,-0.10469 0.78123,5.50235 c 0.42966,3.0263 1.10464,7.52825 1.49998,10.00429 l 0.71879,4.50195 12.58314,0.27855 12.58315,0.27855 1.2192,-4.2805 c 0.67056,-2.35423 2.1479,-6.64396 3.28301,-9.53269 l 2.06377,-5.25226 20.13389,0.008 c 21.61118,0.008 36.48952,1.01114 54.38385,3.66225 l 11.24999,1.66674 v 20.15951 c 0,26.1894 -0.39213,27.57558 -11.05898,39.09426 -8.88143,9.59066 -10.96811,13.05777 -13.54499,22.50591 -2.42835,8.90347 -2.26704,29.84353 0.43494,56.46414 3.85338,37.9646 7.07464,93.0155 9.02011,154.15276 l 0.83044,26.09802 10.90927,18.26891 c 16.54983,27.71501 22.45179,33.14328 39.92704,36.72268 12.02003,2.46202 42.92183,2.46002 50.96874,-0.003 11.33152,-3.46965 31.51344,-21.05159 31.51344,-27.45449 0,-1.11999 -5.57065,-9.83845 -12.3792,-19.37428 -11.1518,-15.61882 -12.45177,-17.88347 -13.11103,-22.84025 -0.40252,-3.0263 -2.25687,-13.53747 -4.12078,-23.35823 -2.7498,-14.48811 -3.38495,-20.24312 -3.3676,-30.51308 l 0.0227,-12.65714 4.51827,-6.97837 c 2.50186,-3.86396 5.42468,-10.11462 6.54932,-14.00595 1.11704,-3.86524 2.70399,-9.27862 3.52653,-12.02978 2.83396,-9.47872 14.59593,-24.73671 29.8631,-38.73925 4.40001,-4.03555 14.52499,-13.00441 22.49998,-19.93085 14.33254,-12.44802 26.00002,-23.92025 26.00002,-25.56495 0,-0.46632 2.93465,-4.4389 6.52146,-8.82803 6.40747,-7.84063 12.47852,-18.25425 12.47852,-21.40426 0,-1.12422 -4.88307,-3.62687 -16.42994,-8.42067 -19.49553,-8.09375 -24.42887,-9.66864 -30.28615,-9.66864 -8.77066,0 -12.64475,1.75045 -21.40214,9.67049 -9.49062,8.58315 -11.20785,9.66126 -15.20727,9.5475 -3.49123,-0.0994 -6.65643,-2.88374 -11.43391,-10.05838 -1.95813,-2.94059 -5.65489,-7.66764 -8.21503,-10.50448 -6.45966,-7.15782 -8.02556,-9.67158 -8.02556,-12.88373 v -2.77871 h 15.36514 c 14.03033,0 15.59407,-0.1799 18,-2.07345 2.96844,-2.33597 3.45377,-5.40151 1.00407,-6.34197 -0.89696,-0.34431 -7.55871,-0.32844 -14.80388,0.034 -9.41824,0.47289 -14.24863,0.30614 -16.94657,-0.58451 -7.22279,-2.38477 -9.87254,-11.50503 -5.27539,-18.15741 1.28886,-1.86505 6.04781,-8.76851 10.57546,-15.34099 4.52761,-6.57256 8.9856,-12.52267 9.9066,-13.22253 6.51223,-4.94842 17.63304,-7.538 50.67458,-11.79999 39.28127,-5.06687 54.24816,-8.43912 68.39018,-15.40909 8.55148,-4.21471 16.48006,-11.52315 20.10985,-18.53698 l 2.5,-4.83075 9.50177,0.50062 c 12.36046,0.65122 22.22567,3.95099 36.49822,12.20811 15.68432,9.0739 26.33099,14.01775 34.50096,16.02071 6.81891,1.6718 7.08443,1.84781 6.59536,4.37235 -0.28045,1.44672 -0.79801,6.02415 -1.15061,10.17203 l -0.641,7.54159 6.14226,11.96674 c 5.40884,10.53785 6.24952,12.95743 7.04058,20.2633 0.49406,4.56306 1.71148,11.99123 2.70538,16.50701 2.75876,12.53461 2.45042,42.50884 -0.58359,56.73131 -3.06769,14.38042 -9.47354,33.65265 -21.61437,65.02776 -17.78551,45.96261 -19.01193,50.87403 -18.86071,75.53231 0.0918,14.95487 0.47135,19.36452 2.23941,26.01112 2.74908,10.33448 9.6971,24.61206 22.69512,46.63646 5.73717,9.72125 10.43123,18.14627 10.43123,18.72219 0,0.57597 -2.13751,1.3493 -4.75003,1.71848 -10.73405,1.51695 -11.73351,1.89188 -12.04475,4.51846 -0.18596,1.56802 1.16349,4.74467 3.65038,8.59404 5.95876,9.22326 6.13897,9.69721 7.26406,19.1054 0.81645,6.82738 1.98758,10.7517 5.32721,17.85139 7.28938,15.49637 10.3734,17.89138 38.55311,29.93961 7.42499,3.17457 15.06481,5.81858 16.97737,5.87565 3.39575,0.10129 3.52864,-0.0446 5.66097,-6.21169 1.96268,-5.67648 3.53704,-7.70079 15.56115,-20.00852 14.54189,-14.88495 18.36465,-19.8395 22.7026,-29.42389 1.56295,-3.45324 5.57265,-9.35399 8.9105,-13.11273 10.48441,-11.80656 19.8014,-33.10938 27.20172,-62.19545 5.94712,-23.37449 7.40568,-34.88995 7.41282,-58.525 0.008,-20.7464 -1.03563,-29.75687 -5.06135,-43.77203 -1.62796,-5.66756 -2.71831,-6.61248 -8.86579,-7.68303 -6.68553,-1.16424 -12.15156,-4.31478 -13.907,-8.01573 -2.7648,-5.82879 -2.05553,-9.28279 3.90826,-19.03306 5.20293,-8.50636 6.53938,-11.49906 7.90851,-17.70958 0.42187,-1.91369 1.5498,-2.99055 3.96888,-3.78928 1.85874,-0.61368 4.15317,-1.97103 5.0987,-3.01629 1.49306,-1.65052 1.55656,-2.39335 0.48264,-5.64869 -0.98248,-2.97827 -0.9815,-5.75014 0.004,-13.49307 1.5521,-12.18425 0.64479,-18.2993 -6.00257,-40.45693 -9.71161,-32.37158 -11.71566,-43.955 -9.98936,-57.73871 1.96233,-15.66837 6.81766,-25.81115 22.69587,-47.41195 12.29741,-16.72945 15.99549,-22.51327 23.80838,-37.23667 3.97833,-7.49718 8.13789,-15.31223 9.24348,-17.36676 1.66891,-3.10152 1.84126,-4.37508 1.01538,-7.50322 -2.82978,-10.71822 10.45614,-20.33669 22.56746,-16.33791 4.2987,1.41933 5.39986,4.06999 6.33099,15.23979 0.65174,7.81827 0.76649,8.08915 6.62898,15.64879 11.83541,15.26168 33.74875,50.31961 43.11584,68.97857 7.9636,15.86325 8.97334,19.85284 9.04964,35.75573 0.081,16.88935 -0.61095,19.77143 -10.92887,45.51946 -10.1789,25.40104 -10.61209,27.37474 -10.08294,45.9391 l 0.43619,15.30286 3.43045,2.33204 c 4.23514,2.87909 6.71146,7.88576 6.7316,13.61012 0.0181,5.13244 0.45032,5.90044 4.71853,8.38382 4.23262,2.4627 6.26616,6.96575 6.26616,13.8757 0,6.6821 -1.76082,8.95654 -8.19725,10.58816 -9.97804,2.52941 -11.65827,3.80829 -13.69718,10.42507 -4.90637,15.92247 -5.60833,21.94791 -5.54714,47.61498 0.0498,20.89905 0.38613,26.27932 2.28251,36.51561 4.42258,23.87206 11.58257,47.01464 20.21132,65.32713 3.71557,7.88542 6.35137,11.8769 11.2308,17.00727 4.35337,4.57723 7.51617,9.14555 9.97087,14.40177 2.72154,5.82758 5.59289,9.77999 11.81694,16.26584 4.52202,4.71224 9.69124,9.47626 11.48715,10.58669 3.15675,1.95178 3.52585,1.96626 11.10364,0.43574 4.31109,-0.87077 15.71335,-3.59637 25.33835,-6.05692 19.63935,-5.02061 31.06384,-9.99322 46.92934,-20.42642 13.426,-8.82898 20.37321,-16.05804 22.64891,-23.56804 2.2038,-7.2723 3.3384,-8.67859 10.1454,-12.57483 2.946,-1.68627 6.0995,-4.20056 7.0078,-5.58739 2.4766,-3.78138 11.7444,-28.86814 16.7374,-45.30636 15.3927,-50.67572 23.9502,-102.87213 26.079,-159.06796 0.8515,-22.47723 -1.0297,-68.91428 -3.5665,-88.03767 -3.0325,-22.8604 -6.4491,-38.89025 -8.6535,-40.60025 -1.0053,-0.77987 -6.6506,-3.95483 -12.545,-7.05548 -12.5254,-6.58877 -13.2897,-7.7955 -13.2207,-20.87353 0.033,-6.28521 0.5227,-8.9247 2.2803,-12.29453 2.3844,-4.57141 7.2107,-8.20441 10.9075,-8.21053 2.2062,-0.004 2.25,-0.23369 2.25,-11.83154 v -11.82776 l 4.25,-2.08012 c 2.3375,-1.14406 5.6877,-2.37966 7.4449,-2.74576 3.1269,-0.65153 3.1857,-0.76534 2.7627,-5.35031 -0.2377,-2.57636 -0.9055,-10.65901 -1.4839,-17.96123 -1.2911,-16.29772 -2.6552,-20.81384 -13.468,-44.59016 -8.4908,-18.67016 -12.8415,-31.18351 -14.074,-40.47878 -0.5756,-4.3403 -0.4013,-4.98453 1.7138,-6.33739 7.094,-4.53722 19.4216,-6.95972 47.7828,-9.38971 10.1355,-0.86841 18.7321,-1.76681 19.1034,-1.99644 0.3714,-0.22953 0.9597,-3.47949 1.3074,-7.22195 0.3476,-3.742503 1.3661,-9.271555 2.2631,-12.286828 2.1664,-7.281728 2.3669,-17.111304 0.3978,-19.496863 -0.825,-0.999469 -3.4125,-2.665519 -5.75,-3.702308 l -4.25,-1.885088 0.011,-10.707784 c 0.01,-5.889286 0.2899,-12.395992 0.6308,-14.459399 0.5386,-3.259801 0.9752,-3.751574 3.3301,-3.751574 1.4906,0 4.7919,0.626763 7.3362,1.392782 6.6209,1.993459 7.6632,0.428822 4.1685,-6.257567 -3.5995,-6.8869 -3.0824,-8.947132 3.0234,-12.046043 6.7975,-3.449952 20.6126,-3.702988 27.5212,-0.504139 8.0581,3.731195 8.9574,5.788705 6.3796,14.596237 -0.4343,1.483872 0.182,1.613563 5.2031,1.095095 8.0452,-0.83068 8.3961,-0.144453 8.3961,16.421016 v 13.31458 l -5.75,0.01512 c -9.3686,0.02646 -9.1381,-1.01195 -4.927,22.167901 2.0319,11.184246 3.6904,21.067662 3.6857,21.963192 -0.016,3.06061 2.5988,3.78341 19.5053,5.39089 30.1441,2.86614 41.4345,6.10352 47.9844,13.7589 l 3.3718,3.9409 -2.9255,8.29227 c -1.6091,4.56074 -6.1342,15.43104 -10.0557,24.15614 -13.5954,30.24848 -17.2113,41.78675 -18.4696,58.93545 -0.8137,11.08968 -0.3012,12.26009 8.0806,18.45474 8.0994,5.98597 8.9492,7.66627 7.6393,15.10579 -0.8847,5.02491 -0.81,6.63961 0.4171,9.01364 0.8222,1.59065 1.8209,2.89889 2.2193,2.90713 0.3984,0.008 3.3118,2.41759 6.4743,5.3541 l 5.75,5.33907 v 7.81369 c 0,6.44451 -0.4209,8.5322 -2.4019,11.91405 -2.9495,5.03497 -8.7165,8.42869 -18.0532,10.62361 l -6.9594,1.63608 -1.2937,4.91342 c -2.1417,8.12799 -6.2348,30.97233 -8.4105,46.93142 -2.9767,21.83448 -3.8458,93.12635 -1.4451,118.55066 4.8586,51.45502 13.8486,96.18146 27.6494,137.55882 8.584,25.73639 9.8157,27.95932 18.7607,33.85765 6.4466,4.25091 7.6489,5.53954 9.802,10.50452 5.4673,12.60824 4.9974,12.02298 17.35,21.60865 2.475,1.92061 9.1574,6.7327 14.8499,10.69354 5.6925,3.96083 12.7683,9.41261 15.724,12.11508 4.2647,3.89938 8.4708,6.24004 20.3774,11.33987 21.6067,9.25455 23.824,9.0836 38.9407,-3.00178 3.6345,-2.90551 10.2079,-7.68174 14.608,-10.61378 16.0112,-10.66945 23.1789,-19.54957 25.0063,-30.98003 0.596,-3.72866 1.6976,-5.44698 6.4135,-10.00426 5.0564,-4.88636 6.2718,-6.91362 10.8561,-18.10836 14.2094,-34.69822 24.6152,-75.44387 30.177,-118.16288 3.9038,-29.98489 4.5282,-40.76387 4.4505,-76.81985 -0.078,-35.97672 -0.8547,-47.64839 -5.0352,-75.6353 l -1.6592,-11.10765 -6.6045,-0.0113 c -7.8483,-0.0113 -14.5327,-2.76503 -19.7365,-8.12546 -4.0087,-4.12924 -6.8709,-12.68069 -6.0135,-17.96621 0.7726,-4.76258 5.9751,-9.95142 11.6281,-11.59748 l 4.5174,-1.31543 0.2864,-9.07661 0.2865,-9.07668 5.2134,-2.96342 c 10.6734,-6.0669 12.2958,-10.647 7.4354,-20.9918 -2.1498,-4.57598 -2.356,-5.87053 -1.5125,-9.50408 1.335,-5.75119 0.3489,-21.12529 -1.7458,-27.21633 -0.9461,-2.7512 -5.4762,-13.78091 -10.0668,-24.51047 -4.5909,-10.72961 -8.6394,-20.97148 -8.9969,-22.75973 -0.9782,-4.89382 1.8294,-4.255 10.0095,2.2775 7.6006,6.06968 10.3618,7.20451 13.4745,5.53794 2.8355,-1.51813 4.2658,-4.50977 4.9971,-10.45177 0.5973,-4.85275 0.751,-5.05652 4.3845,-5.81097 4.8003,-0.99671 9.5981,-3.46005 20.1835,-10.36287 4.6631,-3.04095 9.8146,-5.99493 11.4474,-6.56441 l 2.9688,-1.03539 -2.0533,-4.67765 c -2.7087,-6.17098 -2.8773,-14.64358 -0.3749,-18.83948 4.6671,-7.82526 18.2013,-10.50103 26.2298,-5.18572 5.6493,3.74008 7.7789,8.63764 6.8516,15.75693 -1.5499,11.90028 -2.2586,10.56425 10.4817,19.75954 6.325,4.56505 14.9351,9.99765 19.1336,12.0724 7.3046,3.60971 7.6574,3.94332 8.1837,7.73895 1.1565,8.34014 7.9313,8.89412 18.7817,1.53575 7.4963,-5.08371 9.9049,-5.99679 9.8962,-3.75162 0,0.68779 -2.0672,5.75245 -4.5877,11.2548 -19.9271,43.50052 -18.9075,39.90438 -18.9075,66.68868 v 21.66946 l 6.8855,7.13597 6.8854,7.13594 -0.5599,5.42736 -0.5599,5.42733 6.3997,5.03146 c 8.9496,7.03616 9.8193,8.62216 9.2319,16.83447 -0.6017,8.41296 -3.7387,15.93071 -6.96,16.67928 -1.2775,0.29669 -6.3089,0.97425 -11.1809,1.50531 -4.8721,0.53106 -9.439,1.44782 -10.1489,2.03717 -1.2994,1.07886 -4.1235,14.56864 -7.12,34.00864 -2.1261,13.79373 -3.0928,81.30251 -1.4382,100.43486 3.8364,44.36115 14.9042,95.96833 29.1237,135.79952 7.6467,21.41938 10.0838,26.07387 15.8065,30.18698 4.1601,2.99002 4.9412,4.09931 5.521,7.84025 1.8241,11.77035 11.5443,22.70003 32.8728,36.96295 15.7284,10.51793 21.7761,13.45923 30.4329,14.80082 8.6342,1.33806 26.4075,1.42163 35.0935,0.16478 6.2632,-0.9061 6.3278,-0.94945 18.6551,-12.51976 13.8981,-13.045 19.1899,-19.52096 22.5103,-27.54826 1.4587,-3.52626 4.5865,-7.90979 8.7091,-12.20598 4.98,-5.18937 7.5298,-9.03111 11.2881,-17.00727 8.6288,-18.31249 15.7888,-41.45507 20.2114,-65.32713 1.8964,-10.23629 2.2327,-15.61656 2.2825,-36.5156 0.061,-25.66708 -0.6408,-31.69252 -5.5472,-47.61499 -2.0389,-6.61678 -3.7191,-7.89565 -13.6971,-10.42507 -6.4364,-1.63162 -8.1973,-3.90606 -8.1973,-10.58815 0,-6.90996 2.0335,-11.41301 6.2662,-13.87571 4.2683,-2.48337 4.7004,-3.25137 4.7185,-8.38382 0.019,-5.7244 2.4965,-10.73103 6.7317,-13.61012 l 3.4303,-2.33204 0.4362,-15.30286 c 0.5292,-18.56436 0.096,-20.53806 -10.0828,-45.9391 -10.318,-25.74803 -11.01,-28.63011 -10.929,-45.51945 0.076,-15.9029 1.0862,-19.89249 9.0497,-35.75573 9.3671,-18.65896 31.2805,-53.7169 43.1158,-68.97858 5.8625,-7.55964 5.9772,-7.83053 6.6291,-15.6488 0.931,-11.1698 2.0322,-13.82046 6.3309,-15.23978 12.1113,-3.99879 25.3972,5.61968 22.5674,16.3379 -0.8259,3.12814 -0.6534,4.40171 1.0154,7.50323 1.1056,2.05452 5.2653,9.86958 9.2436,17.36676 7.8128,14.72339 11.5108,20.50722 23.8083,37.23668 15.8782,21.60079 20.7335,31.74357 22.6958,47.41194 1.7263,13.78371 -0.2778,25.36713 -9.9893,57.73871 -6.6474,22.15763 -7.5547,28.27268 -6.0026,40.45693 0.9863,7.74293 0.9874,10.5148 0,13.49307 -1.0738,3.25534 -1.0103,3.99817 0.4828,5.64869 0.9454,1.04527 3.2398,2.40261 5.0987,3.01629 2.419,0.79873 3.547,1.87559 3.9688,3.78928 1.3691,6.21052 2.7055,9.20322 7.9085,17.70958 5.9638,9.75027 6.6731,13.20427 3.9083,19.03306 -1.7554,3.70095 -7.2215,6.85149 -13.907,8.01573 -6.1465,1.07037 -7.2361,2.01411 -8.8876,7.6972 -3.7478,12.89798 -5.0072,24.01735 -5.0123,44.25808 -0.011,30.47622 4.4442,54.72529 15.4746,84.29099 6.832,18.31219 11.8554,27.75511 19.1279,35.95653 3.4519,3.89295 7.4225,9.80463 9.2754,13.80979 6.9224,14.96315 19.0418,27.26117 34.076,34.57818 11.8785,5.78117 21.4809,7.94 35.3178,7.94 h 11.5519 l 6.637,-6.78615 c 9.2487,-9.45645 15.4561,-22.1492 16.8668,-34.48826 0.9092,-7.95353 1.4731,-9.53265 6.1215,-17.14269 3.2309,-5.2893 4.9965,-9.24 4.7855,-10.7071 -0.3504,-2.43439 -1.5636,-2.87191 -12.0846,-4.35878 -2.6125,-0.36888 -4.75,-1.16111 -4.75,-1.75982 0,-0.59868 4.587,-8.78714 10.1932,-18.1965 22.5823,-37.90103 27.0511,-52.24498 25.4331,-81.63557 -0.9995,-18.15382 -3.0855,-25.4587 -19.1407,-67.02867 -12.1466,-31.45002 -18.5366,-50.69189 -21.5948,-65.02776 -3.0341,-14.22247 -3.3424,-44.1967 -0.5837,-56.73131 0.994,-4.51578 2.2113,-11.94395 2.7054,-16.50701 0.791,-7.30587 1.6316,-9.72544 7.0405,-20.2633 l 6.1422,-11.96674 -0.641,-7.54159 c -0.3526,-4.14788 -0.8703,-8.7253 -1.1506,-10.17203 -0.489,-2.52454 -0.2237,-2.70055 6.5955,-4.37235 8.1699,-2.00296 18.8166,-6.94681 34.5009,-16.02072 14.2725,-8.25711 24.1376,-11.55688 36.4982,-12.2081 l 9.5017,-0.50063 2.3619,4.55934 c 3.0212,5.83196 13.255,15.67948 19.6678,18.92526 12.886,6.52214 32.874,10.79301 76.3743,16.31906 25.9095,3.2914 37.0868,6.07423 43.2707,10.77316 0.9209,0.69986 5.379,6.64997 9.9065,13.22253 4.5277,6.57248 9.2866,13.47594 10.5755,15.34099 4.5972,6.65238 1.9474,15.77265 -5.2753,18.15742 -2.698,0.89079 -7.5284,1.05739 -16.9467,0.5845 -7.2451,-0.36359 -13.9068,-0.37965 -14.8038,-0.034 -2.4497,0.94046 -1.9644,4.006 1.0041,6.34198 2.4059,1.89331 3.9696,2.07344 18,2.07344 h 15.3651 v 2.77871 c 0,3.21215 -1.5659,5.72591 -8.0255,12.88373 -2.5602,2.83684 -6.257,7.5639 -8.2152,10.50448 -4.7774,7.17464 -7.9426,9.95909 -11.4338,10.05838 -3.9994,0.11377 -5.7166,-0.96434 -15.2073,-9.5475 -8.7527,-7.92004 -12.6266,-9.67049 -21.3973,-9.67049 -5.8574,0 -10.7907,1.57489 -30.2861,9.66864 -11.547,4.7938 -16.43,7.29645 -16.43,8.42067 0,3.15001 6.0711,13.56363 12.4785,21.40426 3.5868,4.38913 6.5215,8.36171 6.5215,8.82803 0,1.6447 11.6675,13.11693 26,25.56495 7.975,6.92644 18.0999,15.8953 22.5,19.93085 15.2671,14.00255 27.0291,29.26054 29.8631,38.73925 0.8225,2.75116 2.4094,8.16454 3.5264,12.02978 1.1248,3.89133 4.0475,10.14199 6.5494,14.00595 l 4.5183,6.97837 0.023,12.65715 c 0.019,10.26996 -0.6178,16.02497 -3.3676,30.51307 -1.864,9.82076 -3.7183,20.33193 -4.1208,23.35823 -0.6592,4.95678 -1.9593,7.22143 -13.1111,22.84026 -6.8236,9.55702 -12.3792,18.32428 -12.3792,19.53585 0,2.68225 2.0167,5.8058 7.3618,11.40268 3.862,4.04394 4.1005,4.65834 4.7519,12.24109 0.438,5.09995 1.3541,9.00908 2.5361,10.8231 1.0177,1.56177 4.1003,6.34533 6.8503,10.63015 7.8052,12.16138 12.4694,18.70843 19.5444,27.43453 3.5995,4.43939 8.1681,10.81735 10.1525,14.17323 1.9844,3.35588 3.8165,5.73588 4.0713,5.28892 0.2547,-0.44701 1.7072,-4.63937 3.2276,-9.31639 7.0544,-21.70125 12.6165,-30.51575 32.5116,-51.52203 18.7438,-19.79051 20.4151,-21.96419 32.2263,-41.91246 l 10.0881,-17.03804 0.8288,-26.04846 c 1.9435,-61.08216 5.1661,-116.14912 9.0184,-154.10321 2.702,-26.62061 2.8633,-47.56071 0.435,-56.46418 -2.5769,-9.44814 -4.6636,-12.91525 -13.545,-22.50591 -10.6665,-11.51864 -11.0586,-12.90486 -11.0586,-39.09427 v -20.15951 l 11.25,-1.66673 c 17.8943,-2.65111 32.7727,-3.65306 54.3839,-3.66225 l 20.1338,-0.008 2.0638,5.2523 c 1.1351,2.88869 2.6125,7.17842 3.283,9.53265 l 1.2192,4.2805 12.5832,-0.27855 12.5831,-0.27855 0.7188,-4.50195 c 0.3953,-2.47604 1.0703,-6.97799 1.5,-10.00429 l 0.7812,-5.50235 20.5,0.10469 c 17.5409,0.0896 23.5141,0.55903 41.3812,3.25141 11.4846,1.73061 22.6221,3.14657 24.75,3.14657 h 3.8688 l -0.038,13.25568 c -0.049,18.06021 -1.3782,31.72021 -3.4904,35.85921 -0.9565,1.87415 -5.4054,7.23417 -9.8866,11.91118 -7.658,7.99257 -8.2857,8.98466 -10.4445,16.50709 -1.2633,4.40186 -3.4372,9.96964 -4.8309,12.37277 l -2.5339,4.3694 1.1162,24.64301 c 0.6139,13.55365 1.7862,48.2781 2.6052,77.16548 2.764,97.50199 4.1889,122.93027 7.4135,132.29912 4.2969,12.4848 15.4499,31.27377 28.0636,47.27765 3.4694,4.40187 12.3189,13.93769 19.6658,21.19068 L 2600,708.82426 V 754.41213 800 H 1300.0001 0 Z"
       id="path5094"
       inkscape:connector-curvature="0" />
  </g>
</svg>
