<?xml version="1.0" encoding="UTF-8" standalone="no"?>
<!-- Created with Inkscape (http://www.inkscape.org/) -->

<svg
   xmlns:dc="http://purl.org/dc/elements/1.1/"
   xmlns:cc="http://creativecommons.org/ns#"
   xmlns:rdf="http://www.w3.org/1999/02/22-rdf-syntax-ns#"
   xmlns:svg="http://www.w3.org/2000/svg"
   xmlns="http://www.w3.org/2000/svg"
   xmlns:sodipodi="http://sodipodi.sourceforge.net/DTD/sodipodi-0.dtd"
   xmlns:inkscape="http://www.inkscape.org/namespaces/inkscape"
   width="1666px"
   height="302px"
   viewBox="0 0 1666 302"
   version="1.1"
   id="SVGRoot"
   inkscape:version="0.92.4 (5da689c313, 2019-01-14)"
   sodipodi:docname="Layer-2.svg">
  <defs
     id="defs279" />
  <sodipodi:namedview
     id="base"
     pagecolor="#ffffff"
     bordercolor="#666666"
     borderopacity="1.0"
     inkscape:pageopacity="0.0"
     inkscape:pageshadow="2"
     inkscape:zoom="0.61464586"
     inkscape:cx="715.21046"
     inkscape:cy="24.54203"
     inkscape:document-units="px"
     inkscape:current-layer="layer1"
     showgrid="false"
     inkscape:window-width="1920"
     inkscape:window-height="1017"
     inkscape:window-x="-8"
     inkscape:window-y="-8"
     inkscape:window-maximized="1" />
  <metadata
     id="metadata282">
    <rdf:RDF>
      <cc:Work
         rdf:about="">
        <dc:format>image/svg+xml</dc:format>
        <dc:type
           rdf:resource="http://purl.org/dc/dcmitype/StillImage" />
        <dc:title></dc:title>
      </cc:Work>
    </rdf:RDF>
  </metadata>
  <g
     inkscape:label="Layer 1"
     inkscape:groupmode="layer"
     id="layer1">
    <path
       style="fill:#2b1100;stroke-width:0.73019719"
       d="m 32.85888,301.45139 -13.50865,-0.47446 -7.72374,-5.92292 C 3.96496,289.1788 0,285.03647 0,282.90745 c 0,-1.34407 3.4731,-4.03126 8.3972603,-6.49705 2.0080397,-1.00553 4.2707497,-2.51409 5.0282297,-3.35235 1.35993,-1.50494 1.34172,-1.57569 -1.44822,-5.62656 -2.4773597,-3.59702 -2.8254697,-4.61981 -2.8254697,-8.30165 0,-5.6457 1.8491197,-8.37113 13.1814297,-19.42815 6.59811,-6.43783 9.44576,-9.77057 10.60658,-12.41336 1.84865,-4.20875 1.75394,-4.13143 8.01387,-6.5427 4.66642,-1.79745 4.90125,-2.01371 7.92466,-7.29794 5.68685,-9.93935 10.33547,-24.48317 12.98345,-40.62048 1.72577,-10.51716 1.71649,-35.59659 -0.0166,-44.86239 -1.42901,-7.64013 -4.09323,-16.89867 -6.07766,-21.12077 -1.31301,-2.79356 -1.54764,-2.93703 -5.3864,-3.29357 -4.65845,-0.43267 -5.83909,-1.01908 -5.83909,-2.90017 0,-1.755223 3.24527,-5.60721 5.86564,-6.96225 1.12239,-0.58041 5.60134,-2.07523 9.95323,-3.32182 4.3519,-1.24659 9.33412,-3.08858 11.07162,-4.09332 C 75.15974,84.11761 75.89225,85.448 64.25821,73.24272 54.89504,63.41981 52.60546,59.47641 52.06318,52.2389 51.26505,41.58667 53.56505,28.392599 57.5982,20.48698 62.0404,11.77954 72.90128,3.93212 83.60759,1.69416 c 6.42675,-1.34340005 9.63758,-1.34340005 16.064326,0 10.706314,2.23796 21.567194,10.08538 26.009404,18.79282 4.03314,7.905619 6.33313,21.09969 5.53501,31.75192 -0.53184,7.09814 -2.80413,11.11781 -11.46398,20.27969 -3.81528,4.03647 -7.87137,8.36805 -9.01352,9.62575 l -2.07665,2.28672 3.17195,1.83433 c 1.74456,1.00887 6.73257,2.85426 11.08447,4.10085 4.35189,1.24659 8.83084,2.74141 9.95323,3.32182 2.62037,1.35504 5.86564,5.207027 5.86564,6.96225 0,1.88109 -1.18064,2.4675 -5.83908,2.90017 -3.83623,0.35631 -4.07477,0.50186 -5.39772,3.29357 -1.95101,4.11704 -5.22973,15.76099 -6.37811,22.65101 -1.43202,8.59185 -1.25747,33.80329 0.30001,43.33215 2.63201,16.10294 7.28751,30.67372 12.97861,40.62048 3.0234,5.28423 3.25823,5.50049 7.92464,7.29794 6.25994,2.41127 6.16523,2.33395 8.01388,6.5427 1.16083,2.64279 4.00848,5.97553 10.60658,12.41336 11.3323,11.05702 13.18142,13.78245 13.18142,19.42815 0,3.68184 -0.34811,4.70463 -2.82548,8.30165 -2.78993,4.05087 -2.80814,4.12162 -1.44822,5.62656 0.75749,0.83826 3.02019,2.34682 5.02824,3.35235 4.92415,2.46579 8.39726,5.15298 8.39726,6.49705 0,2.13139 -3.9678,6.27339 -11.60322,12.11264 l -7.70046,5.88899 -16.08761,0.59596 c -18.50512,0.68551 -95.00031,0.64983 -115.02933,-0.0537 z m 213.21758,0 -13.50865,-0.47446 -7.72372,-5.92292 c -7.66154,-5.87521 -11.6265,-10.01754 -11.6265,-12.14656 0,-1.34407 3.47311,-4.03126 8.39727,-6.49705 2.00804,-1.00553 4.27074,-2.51409 5.02823,-3.35235 1.35993,-1.50494 1.34171,-1.57569 -1.44822,-5.62656 -2.47737,-3.59702 -2.82548,-4.61981 -2.82548,-8.30165 0,-5.6457 1.84912,-8.37113 13.18142,-19.42815 6.5981,-6.43783 9.44576,-9.77057 10.60658,-12.41336 1.84866,-4.20875 1.75394,-4.13143 8.01388,-6.5427 4.66641,-1.79745 4.90124,-2.01371 7.92465,-7.29794 5.68686,-9.93935 10.33547,-24.48317 12.98346,-40.62048 1.72576,-10.51716 1.71649,-35.59659 -0.0166,-44.86239 -1.42902,-7.64013 -4.09324,-16.89867 -6.07767,-21.12077 -1.31301,-2.79356 -1.54763,-2.93703 -5.3864,-3.29357 -4.65846,-0.43267 -5.83911,-1.01908 -5.83911,-2.90017 0,-1.755223 3.24527,-5.60721 5.86564,-6.96225 1.12239,-0.58041 5.60135,-2.07523 9.95323,-3.32182 4.3519,-1.24659 9.33413,-3.08858 11.07163,-4.09332 3.72721,-2.15531 4.45971,-0.82492 -7.17432,-13.0302 -9.36318,-9.82291 -11.65275,-13.76631 -12.19503,-21.00382 -0.79813,-10.65223 1.50187,-23.846301 5.53501,-31.75192 4.4422,-8.70744 15.30308,-16.55486 26.00939,-18.79282 6.42675,-1.34340005 9.63759,-1.34340005 16.06434,0 10.7063,2.23796 21.56718,10.08538 26.00939,18.79282 4.03314,7.905619 6.33314,21.09969 5.53501,31.75192 -0.53184,7.09814 -2.80413,11.11781 -11.46398,20.27969 -3.81528,4.03647 -7.87137,8.36805 -9.01352,9.62575 l -2.07665,2.28672 3.17195,1.83433 c 1.74456,1.00887 6.73258,2.85426 11.08447,4.10085 4.35189,1.24659 8.83085,2.74141 9.95323,3.32182 2.62037,1.35504 5.86565,5.207027 5.86565,6.96225 0,1.88109 -1.18065,2.4675 -5.83909,2.90017 -3.83622,0.35631 -4.07477,0.50186 -5.39772,3.29357 -1.95101,4.11704 -5.22972,15.76099 -6.37811,22.65101 -1.43202,8.59185 -1.25747,33.80329 0.30001,43.33215 2.63201,16.10294 7.28751,30.67372 12.97861,40.62048 3.0234,5.28423 3.25823,5.50049 7.92465,7.29794 6.25993,2.41127 6.16522,2.33395 8.01387,6.5427 1.16083,2.64279 4.00848,5.97553 10.60658,12.41336 11.3323,11.05702 13.18142,13.78245 13.18142,19.42815 0,3.68184 -0.3481,4.70463 -2.82547,8.30165 -2.78994,4.05087 -2.80815,4.12162 -1.44823,5.62656 0.75749,0.83826 3.02019,2.34682 5.02825,3.35235 4.92416,2.46579 8.39726,5.15298 8.39726,6.49705 0,2.13139 -3.9678,6.27339 -11.60323,12.11264 l -7.70046,5.88899 -16.08761,0.59596 c -18.50512,0.68551 -95.00031,0.64983 -115.02933,-0.0537 z m 213.21759,0 -13.50864,-0.47446 -7.72373,-5.92292 c -7.66154,-5.87521 -11.6265,-10.01754 -11.6265,-12.14656 0,-1.34407 3.47311,-4.03126 8.39727,-6.49705 2.00804,-1.00553 4.27075,-2.51409 5.02823,-3.35235 1.35993,-1.50494 1.34172,-1.57569 -1.44822,-5.62656 -2.47737,-3.59702 -2.82548,-4.61981 -2.82548,-8.30165 0,-5.6457 1.84912,-8.37113 13.18142,-19.42815 6.59811,-6.43783 9.44576,-9.77057 10.60658,-12.41336 1.84866,-4.20875 1.75394,-4.13143 8.01388,-6.5427 4.66641,-1.79745 4.90124,-2.01371 7.92465,-7.29794 5.68686,-9.93935 10.33547,-24.48317 12.98346,-40.62048 1.72576,-10.51716 1.71649,-35.59659 -0.0166,-44.86239 -1.42902,-7.64013 -4.09323,-16.89867 -6.07767,-21.12077 -1.313,-2.79356 -1.54763,-2.93703 -5.3864,-3.29357 -4.65846,-0.43267 -5.83911,-1.01908 -5.83911,-2.90017 0,-1.755223 3.24527,-5.60721 5.86564,-6.96225 1.12239,-0.58041 5.60135,-2.07523 9.95323,-3.32182 4.3519,-1.24659 9.33413,-3.08858 11.07163,-4.09332 3.72721,-2.15531 4.45971,-0.82492 -7.17432,-13.0302 -9.36317,-9.82291 -11.65275,-13.76631 -12.19503,-21.00382 -0.79813,-10.65223 1.50187,-23.846301 5.53501,-31.75192 4.4422,-8.70744 15.30308,-16.55486 26.00939,-18.79282 6.42675,-1.34340005 9.63759,-1.34340005 16.06434,0 10.7063,2.23796 21.56718,10.08538 26.00939,18.79282 4.03314,7.905619 6.33314,21.09969 5.53501,31.75192 -0.53184,7.09814 -2.80413,11.11781 -11.46398,20.27969 -3.81528,4.03647 -7.87136,8.36805 -9.01352,9.62575 l -2.07665,2.28672 3.17195,1.83433 c 1.74456,1.00887 6.73258,2.85426 11.08447,4.10085 4.35189,1.24659 8.83085,2.74141 9.95323,3.32182 2.62037,1.35504 5.86565,5.207027 5.86565,6.96225 0,1.88109 -1.18065,2.4675 -5.83909,2.90017 -3.83622,0.35631 -4.07477,0.50186 -5.39772,3.29357 -1.95101,4.11704 -5.22972,15.76099 -6.3781,22.65101 -1.43203,8.59185 -1.25748,33.80329 0.3,43.33215 2.63201,16.10294 7.28751,30.67372 12.97861,40.62048 3.0234,5.28423 3.25823,5.50049 7.92465,7.29794 6.25993,2.41127 6.16522,2.33395 8.01387,6.5427 1.16083,2.64279 4.00848,5.97553 10.60659,12.41336 11.33228,11.05702 13.1814,13.78245 13.1814,19.42815 0,3.68184 -0.3481,4.70463 -2.82547,8.30165 -2.78994,4.05087 -2.80815,4.12162 -1.44822,5.62656 0.75748,0.83826 3.02019,2.34682 5.02823,3.35235 4.92416,2.46579 8.39727,5.15298 8.39727,6.49705 0,2.13139 -3.96781,6.27339 -11.60323,12.11264 l -7.70046,5.88899 -16.0876,0.59596 c -18.50512,0.68551 -95.00031,0.64983 -115.02933,-0.0537 z m 213.19141,0.01 -13.53483,-0.46495 -7.77193,-5.9997 c -4.27456,-3.29983 -8.77932,-7.36955 -10.01058,-9.04381 l -2.23867,-3.04411 1.63949,-1.76023 c 0.90173,-0.96812 3.77533,-2.84078 6.38578,-4.16146 2.61046,-1.32069 5.36577,-3.08752 6.12292,-3.9263 1.35519,-1.5013 1.34607,-1.56513 -0.58503,-4.09693 -2.58825,-3.39337 -4.0812,-7.08116 -4.06146,-10.03236 0.0319,-4.76974 2.64595,-8.57818 12.64373,-18.42091 6.73152,-6.62713 10.2129,-10.64538 11.42214,-13.18357 2.04591,-4.29436 1.93095,-4.20107 8.10941,-6.58095 4.64491,-1.78918 4.9115,-2.03228 7.81676,-7.12826 5.92204,-10.38754 11.13702,-27.09747 13.38271,-42.88107 1.45527,-10.22827 1.25735,-34.34614 -0.35354,-43.08164 -1.31361,-7.12346 -5.73658,-21.43693 -7.15067,-23.1408 -0.43624,-0.52561 -2.25318,-0.95568 -4.03765,-0.95568 -6.33204,0 -7.70692,-2.46516 -3.83462,-6.875483 2.37647,-2.706647 5.93295,-4.294247 15.65519,-6.988427 6.39768,-1.7729 11.31806,-4.17394 11.31806,-5.52296 0,-0.47466 -3.86092,-4.95829 -8.57982,-9.96363 -10.73989,-11.39179 -12.63499,-14.68802 -13.14506,-22.86389 -0.44958,-7.20629 0.8591,-18.625001 2.77171,-24.184101 4.2267,-12.285109 12.58077,-20.4023787 25.52494,-24.801439 5.54551,-1.88463005 17.09063,-1.88463005 22.63612,0 9.75324,3.31462 18.18811,9.85505 22.1885,17.20509 4.47647,8.224799 6.81778,20.406359 6.10817,31.78045 -0.51011,8.17587 -2.4052,11.4721 -13.14508,22.86389 -4.7189,5.00534 -8.57982,9.48897 -8.57982,9.96363 0,1.34902 4.92036,3.75006 11.31806,5.52296 9.72221,2.69418 13.27871,4.28178 15.65521,6.988427 3.87231,4.410323 2.49742,6.875483 -3.83463,6.875483 -1.78446,0 -3.60141,0.43007 -4.03763,0.95571 -1.4141,1.70387 -5.83705,16.01734 -7.15067,23.1408 -1.61089,8.7355 -1.80885,32.85337 -0.35357,43.08164 2.24565,15.78359 7.46065,32.49353 13.38269,42.88107 2.90531,5.09598 3.17191,5.33908 7.81676,7.12825 6.17849,2.37989 6.06349,2.2866 8.10943,6.58096 1.20928,2.53819 4.69064,6.55644 11.42218,13.18357 9.99771,9.84273 12.61175,13.65117 12.64366,18.42091 0.0197,2.95119 -1.47318,6.63899 -4.06143,10.03236 -1.93108,2.5318 -1.94021,2.59563 -0.58504,4.09693 0.75714,0.83878 3.51247,2.60561 6.12293,3.9263 2.61045,1.32067 5.48407,3.19334 6.38579,4.16146 l 1.63951,1.76023 -2.23871,3.04411 c -1.23126,1.67426 -5.70941,5.72345 -9.95149,8.9982 l -7.71286,5.9541 -16.14962,0.59811 c -18.43208,0.68266 -94.83427,0.65481 -115.11744,-0.042 z m 203.02092,-0.01 -13.50856,-0.47446 -7.7238,-5.92292 c -7.6615,-5.87521 -11.6265,-10.01754 -11.6265,-12.14656 0,-1.34407 3.4732,-4.03126 8.3973,-6.49705 2.0081,-1.00553 4.2708,-2.51409 5.0282,-3.35235 1.3599,-1.50494 1.3418,-1.57569 -1.4482,-5.62656 -2.4773,-3.59702 -2.8255,-4.61981 -2.8255,-8.30165 0,-5.6457 1.8492,-8.37113 13.18146,-19.42815 6.5981,-6.43783 9.4457,-9.77057 10.6065,-12.41336 1.8487,-4.20875 1.754,-4.13143 8.0139,-6.5427 4.6664,-1.79745 4.9013,-2.01371 7.9247,-7.29794 5.6868,-9.93935 10.3355,-24.48317 12.9834,-40.62048 1.7258,-10.51716 1.7165,-35.59659 -0.017,-44.86239 -1.429,-7.64013 -4.0932,-16.89867 -6.0777,-21.12077 -1.3129,-2.79356 -1.5476,-2.93703 -5.3863,-3.29357 -4.6585,-0.43267 -5.8391,-1.01908 -5.8391,-2.90017 0,-1.755223 3.2452,-5.60721 5.8656,-6.96225 1.1224,-0.58041 5.6014,-2.07523 9.9532,-3.32182 4.3519,-1.24659 9.3342,-3.08858 11.0716,-4.09332 3.7272,-2.15531 4.4597,-0.82492 -7.1742,-13.0302 -9.3632,-9.82291 -11.6528,-13.76631 -12.1951,-21.00382 -0.7981,-10.65223 1.5019,-23.846301 5.535,-31.75192 4.4422,-8.70744 15.3031,-16.55486 26.0094,-18.79282 6.4267,-1.34340005 9.6376,-1.34340005 16.0643,0 10.7063,2.23796 21.5672,10.08538 26.0094,18.79282 4.0331,7.905619 6.3332,21.09969 5.535,31.75192 -0.5318,7.09814 -2.8041,11.11781 -11.464,20.27969 -3.8152,4.03647 -7.8713,8.36805 -9.0135,9.62575 l -2.0766,2.28672 3.1719,1.83433 c 1.7446,1.00887 6.7326,2.85426 11.0845,4.10085 4.3519,1.24659 8.8308,2.74141 9.9532,3.32182 2.6204,1.35504 5.8657,5.207027 5.8657,6.96225 0,1.88109 -1.1807,2.4675 -5.8391,2.90017 -3.8363,0.35631 -4.0748,0.50186 -5.3977,3.29357 -1.951,4.11704 -5.2298,15.76099 -6.3781,22.65101 -1.4321,8.59185 -1.2575,33.80329 0.3,43.33215 2.632,16.10294 7.2875,30.67372 12.9786,40.62048 3.0234,5.28423 3.2582,5.50049 7.9246,7.29794 6.26,2.41127 6.1653,2.33395 8.0139,6.5427 1.1608,2.64279 4.00837,5.97553 10.60662,12.41336 11.3323,11.05702 13.1814,13.78245 13.1814,19.42815 0,3.68184 -0.3481,4.70463 -2.8255,8.30165 -2.7899,4.05087 -2.8081,4.12162 -1.4482,5.62656 0.7575,0.83826 3.0202,2.34682 5.0282,3.35235 4.9242,2.46579 8.3973,5.15298 8.3973,6.49705 0,2.13139 -3.9678,6.27339 -11.6032,12.11264 l -7.7005,5.88899 -16.08762,0.59596 c -18.5051,0.68551 -95.0003,0.64983 -115.0293,-0.0537 z m 213.21762,0 -13.5087,-0.47446 -7.7237,-5.92292 c -7.6615,-5.87521 -11.6265,-10.01754 -11.6265,-12.14656 0,-1.34407 3.4731,-4.03126 8.3973,-6.49705 2.008,-1.00553 4.2707,-2.51409 5.0282,-3.35235 1.3599,-1.50494 1.3417,-1.57569 -1.4482,-5.62656 -2.4774,-3.59702 -2.8255,-4.61981 -2.8255,-8.30165 0,-5.6457 1.8491,-8.37113 13.1814,-19.42815 6.5982,-6.43783 9.4458,-9.77057 10.6066,-12.41336 1.8486,-4.20875 1.7539,-4.13143 8.0139,-6.5427 4.6664,-1.79745 4.9012,-2.01371 7.9246,-7.29794 5.6869,-9.93935 10.3355,-24.48317 12.9835,-40.62048 1.7257,-10.51716 1.7165,-35.59659 -0.017,-44.86239 -1.4291,-7.64013 -4.0933,-16.89867 -6.0777,-21.12077 -1.313,-2.79356 -1.5476,-2.93703 -5.3864,-3.29357 -4.6584,-0.43267 -5.8391,-1.01908 -5.8391,-2.90017 0,-1.755223 3.2453,-5.60721 5.8657,-6.96225 1.1224,-0.58041 5.6013,-2.07523 9.9532,-3.32182 4.3519,-1.24659 9.3341,-3.08858 11.0716,-4.09332 3.7272,-2.15531 4.4597,-0.82492 -7.1743,-13.0302 -9.3632,-9.82291 -11.6528,-13.76631 -12.195,-21.00382 -0.7982,-10.65223 1.5019,-23.846301 5.535,-31.75192 4.4422,-8.70744 15.3031,-16.55486 26.0094,-18.79282 6.4267,-1.34340005 9.6375,-1.34340005 16.0643,0 10.7063,2.23796 21.5672,10.08538 26.0094,18.79282 4.0331,7.905619 6.3332,21.09969 5.535,31.75192 -0.5318,7.09814 -2.8041,11.11781 -11.464,20.27969 -3.8153,4.03647 -7.8714,8.36805 -9.0135,9.62575 l -2.0766,2.28672 3.1719,1.83433 c 1.7446,1.00887 6.7326,2.85426 11.0845,4.10085 4.3518,1.24659 8.8308,2.74141 9.9532,3.32182 2.6204,1.35504 5.8657,5.207027 5.8657,6.96225 0,1.88109 -1.1807,2.4675 -5.8391,2.90017 -3.8363,0.35631 -4.0748,0.50186 -5.3977,3.29357 -1.951,4.11704 -5.2298,15.76099 -6.3782,22.65101 -1.432,8.59185 -1.2574,33.80329 0.3001,43.33215 2.632,16.10294 7.2875,30.67372 12.9786,40.62048 3.0234,5.28423 3.2582,5.50049 7.9246,7.29794 6.26,2.41127 6.1653,2.33395 8.0139,6.5427 1.1608,2.64279 4.0084,5.97553 10.6066,12.41336 11.3322,11.05702 13.1814,13.78245 13.1814,19.42815 0,3.68184 -0.3482,4.70463 -2.8255,8.30165 -2.7899,4.05087 -2.8081,4.12162 -1.4482,5.62656 0.7574,0.83826 3.0202,2.34682 5.0282,3.35235 4.9242,2.46579 8.3973,5.15298 8.3973,6.49705 0,2.13139 -3.9678,6.27339 -11.6032,12.11264 l -7.7005,5.88899 -16.0876,0.59596 c -18.5052,0.68551 -95.0003,0.64983 -115.0293,-0.0537 z m 213.2176,0 -13.5087,-0.47446 -7.7237,-5.92292 c -7.6615,-5.87521 -11.6265,-10.01754 -11.6265,-12.14656 0,-1.34407 3.4731,-4.03126 8.3973,-6.49705 2.008,-1.00553 4.2707,-2.51409 5.0282,-3.35235 1.3599,-1.50494 1.3417,-1.57569 -1.4482,-5.62656 -2.4774,-3.59702 -2.8255,-4.61981 -2.8255,-8.30165 0,-5.6457 1.8491,-8.37113 13.1814,-19.42815 6.5981,-6.43783 9.4458,-9.77057 10.6066,-12.41336 1.8486,-4.20875 1.7539,-4.13143 8.0139,-6.5427 4.6664,-1.79745 4.9012,-2.01371 7.9246,-7.29794 5.6868,-9.93935 10.3355,-24.48317 12.9835,-40.62048 1.7257,-10.51716 1.7165,-35.59659 -0.017,-44.86239 -1.4291,-7.64013 -4.0933,-16.89867 -6.0777,-21.12077 -1.313,-2.79356 -1.5476,-2.93703 -5.3864,-3.29357 -4.6584,-0.43267 -5.8391,-1.01908 -5.8391,-2.90017 0,-1.755223 3.2453,-5.60721 5.8657,-6.96225 1.1224,-0.58041 5.6013,-2.07523 9.9531,-3.32182 4.3519,-1.24659 9.3342,-3.08858 11.0717,-4.09332 3.7272,-2.15531 4.4597,-0.82492 -7.1743,-13.0302 -9.3632,-9.82291 -11.6528,-13.76631 -12.195,-21.00382 -0.7982,-10.65223 1.5018,-23.846301 5.5349,-31.75192 4.4423,-8.70744 15.3031,-16.55486 26.0094,-18.79282 6.4268,-1.34340005 9.6376,-1.34340005 16.0644,0 10.7063,2.23796 21.5672,10.08538 26.0094,18.79282 4.0331,7.905619 6.3331,21.09969 5.535,31.75192 -0.5318,7.09814 -2.8041,11.11781 -11.464,20.27969 -3.8153,4.03647 -7.8714,8.36805 -9.0135,9.62575 l -2.0767,2.28672 3.1719,1.83433 c 1.7446,1.00887 6.7327,2.85426 11.0846,4.10085 4.3518,1.24659 8.8308,2.74141 9.9532,3.32182 2.6203,1.35504 5.8656,5.207027 5.8656,6.96225 0,1.88109 -1.1806,2.4675 -5.8391,2.90017 -3.8362,0.35631 -4.0748,0.50186 -5.3977,3.29357 -1.951,4.11704 -5.2297,15.76099 -6.3781,22.65101 -1.432,8.59185 -1.2575,33.80329 0.3001,43.33215 2.632,16.10294 7.2875,30.67372 12.9786,40.62048 3.0233,5.28423 3.2582,5.50049 7.9246,7.29794 6.2599,2.41127 6.1652,2.33395 8.0139,6.5427 1.1608,2.64279 4.0084,5.97553 10.6065,12.41336 11.3323,11.05702 13.1815,13.78245 13.1815,19.42815 0,3.68184 -0.3482,4.70463 -2.8255,8.30165 -2.79,4.05087 -2.8081,4.12162 -1.4482,5.62656 0.7574,0.83826 3.0202,2.34682 5.0282,3.35235 4.9242,2.46579 8.3973,5.15298 8.3973,6.49705 0,2.13139 -3.9679,6.27339 -11.6032,12.11264 l -7.7005,5.88899 -16.0876,0.59596 c -18.5052,0.68551 -95.0003,0.64983 -115.0294,-0.0537 z m 213.2174,0 -13.5086,-0.47446 -7.7237,-5.92292 c -7.6615,-5.87521 -11.6264,-10.01754 -11.6264,-12.14656 0,-1.34407 3.4731,-4.03126 8.3971,-6.49705 2.0081,-1.00553 4.2708,-2.51409 5.0282,-3.35235 1.36,-1.50494 1.3418,-1.57569 -1.4482,-5.62656 -2.4773,-3.59702 -2.8255,-4.61981 -2.8255,-8.30165 0,-5.6457 1.8492,-8.37113 13.1815,-19.42815 6.5981,-6.43783 9.4458,-9.77057 10.6065,-12.41336 1.8487,-4.20875 1.754,-4.13143 8.014,-6.5427 4.6664,-1.79745 4.9012,-2.01371 7.9246,-7.29794 5.6868,-9.93935 10.3355,-24.48317 12.9835,-40.62048 1.7257,-10.51716 1.7164,-35.59659 -0.017,-44.86239 -1.4291,-7.64013 -4.0933,-16.89867 -6.0778,-21.12077 -1.3129,-2.79356 -1.5475,-2.93703 -5.3863,-3.29357 -4.6585,-0.43267 -5.8391,-1.01908 -5.8391,-2.90017 0,-1.755223 3.2453,-5.60721 5.8657,-6.96225 1.1223,-0.58041 5.6013,-2.07523 9.9531,-3.32182 4.3519,-1.24659 9.3342,-3.08858 11.0716,-4.09332 3.7273,-2.15531 4.4598,-0.82492 -7.1742,-13.0302 -9.3632,-9.82291 -11.6528,-13.76631 -12.195,-21.00382 -0.7982,-10.65223 1.5018,-23.846301 5.5349,-31.75192 4.4422,-8.70744 15.3031,-16.55486 26.0094,-18.79282 6.4268,-1.34340005 9.6376,-1.34340005 16.0644,0 10.7063,2.23796 21.5671,10.08538 26.0094,18.79282 4.0331,7.905619 6.3331,21.09969 5.5349,31.75192 -0.5318,7.09814 -2.8041,11.11781 -11.4639,20.27969 -3.8153,4.03647 -7.8714,8.36805 -9.0136,9.62575 l -2.0766,2.28672 3.1719,1.83433 c 1.7446,1.00887 6.7327,2.85426 11.0846,4.10085 4.3518,1.24659 8.8308,2.74141 9.9531,3.32182 2.6204,1.35504 5.8657,5.207027 5.8657,6.96225 0,1.88109 -1.1806,2.4675 -5.8391,2.90017 -3.8362,0.35631 -4.0748,0.50186 -5.3977,3.29357 -1.951,4.11704 -5.2297,15.76099 -6.3781,22.65101 -1.4321,8.59185 -1.2575,33.80329 0.3,43.33215 2.632,16.10294 7.2876,30.67372 12.9786,40.62048 3.0234,5.28423 3.2583,5.50049 7.9246,7.29794 6.26,2.41127 6.1653,2.33395 8.014,6.5427 1.1608,2.64279 4.0084,5.97553 10.6065,12.41336 11.3323,11.05702 13.1815,13.78245 13.1815,19.42815 0,3.68184 -0.3482,4.70463 -2.8255,8.30165 -2.79,4.05087 -2.8082,4.12162 -1.4482,5.62656 0.7574,0.83826 3.0201,2.34682 5.0282,3.35235 4.9241,2.46579 8.3972,5.15298 8.3972,6.49705 0,2.13139 -3.9678,6.27339 -11.6032,12.11264 l -7.7005,5.88899 -16.0875,0.59596 c -18.5052,0.68551 -95.0004,0.64983 -115.0294,-0.0537 z"
       id="path194"
       inkscape:connector-curvature="0" />
  </g>
</svg>
