<?xml version="1.0" encoding="UTF-8" standalone="no"?>
<!-- Created with Inkscape (http://www.inkscape.org/) -->

<svg
   xmlns:dc="http://purl.org/dc/elements/1.1/"
   xmlns:cc="http://creativecommons.org/ns#"
   xmlns:rdf="http://www.w3.org/1999/02/22-rdf-syntax-ns#"
   xmlns:svg="http://www.w3.org/2000/svg"
   xmlns="http://www.w3.org/2000/svg"
   xmlns:sodipodi="http://sodipodi.sourceforge.net/DTD/sodipodi-0.dtd"
   xmlns:inkscape="http://www.inkscape.org/namespaces/inkscape"
   width="253px"
   height="413px"
   viewBox="0 0 253 413"
   version="1.1"
   id="SVGRoot"
   inkscape:version="0.92.4 (5da689c313, 2019-01-14)"
   sodipodi:docname="layer-2.svg">
  <defs
     id="defs110" />
  <sodipodi:namedview
     id="base"
     pagecolor="#ffffff"
     bordercolor="#666666"
     borderopacity="1.0"
     inkscape:pageopacity="0.0"
     inkscape:pageshadow="2"
     inkscape:zoom="2.0237154"
     inkscape:cx="46.202148"
     inkscape:cy="127.4375"
     inkscape:document-units="px"
     inkscape:current-layer="layer1"
     showgrid="false"
     inkscape:window-width="1920"
     inkscape:window-height="1017"
     inkscape:window-x="-8"
     inkscape:window-y="-8"
     inkscape:window-maximized="1" />
  <metadata
     id="metadata113">
    <rdf:RDF>
      <cc:Work
         rdf:about="">
        <dc:format>image/svg+xml</dc:format>
        <dc:type
           rdf:resource="http://purl.org/dc/dcmitype/StillImage" />
        <dc:title></dc:title>
      </cc:Work>
    </rdf:RDF>
  </metadata>
  <g
     inkscape:label="Layer 1"
     inkscape:groupmode="layer"
     id="layer1">
    <path
       style="fill:#e5a577;fill-opacity:1"
       d="m 45.95471,412.26241 -18.53585,-0.63674 -10.6436,-8.21655 C 10.92128,398.89002 4.75203,393.31657 3.06583,391.02369 L 0,386.8548 2.24527,384.44418 c 1.2349,-1.32584 5.17028,-3.89044 8.74528,-5.6991 3.575,-1.80867 7.34838,-4.22833 8.38529,-5.37704 1.85591,-2.05601 1.84343,-2.14343 -0.80119,-5.61071 -3.5446,-4.6472 -5.58918,-9.69761 -5.56214,-13.73925 0.0437,-6.53213 3.62361,-11.74776 17.31549,-25.22731 9.21878,-9.07581 13.9865,-14.57877 15.64254,-18.05481 2.80187,-5.8811 2.64443,-5.75334 11.10579,-9.01257 6.36117,-2.45026 6.72626,-2.78319 10.705,-9.7621 8.11019,-14.22566 15.25207,-37.1098 18.32752,-58.72533 1.99298,-14.00754 1.72194,-47.0368 -0.48416,-59 -1.799,-9.75553 -7.85621,-29.35773 -9.7928,-31.69117 -0.59743,-0.71986 -3.08571,-1.30883 -5.52953,-1.30883 -8.67169,0 -10.55458,-3.37603 -5.25149,-9.41593 3.25456,-3.70673 8.12513,-5.88094 21.43968,-9.57061 8.76157,-2.42797 15.5,-5.71617 15.5,-7.56365 0,-0.65005 -5.2875,-6.79035 -11.75,-13.64512 C 75.53234,85.439665 72.93702,80.925499 72.23848,69.7287 71.62277,59.859739 73.41501,44.221889 76.03431,36.608747 81.82275,19.784376 93.26359,8.6678227 110.99055,2.6433454 c 7.59454,-2.58099271 23.40546,-2.58099271 31,0 13.357,4.5393553 24.90845,13.4964246 30.38696,23.5622526 6.13053,11.2638 9.33691,27.946375 8.36511,43.523102 -0.69854,11.196799 -3.29386,15.710965 -18.00207,31.31195 -6.4625,6.85477 -11.75,12.99507 -11.75,13.64512 0,1.84748 6.73843,5.13568 15.5,7.56365 13.31454,3.68967 18.18512,5.86388 21.43967,9.57061 5.3031,6.0399 3.42021,9.41593 -5.25148,9.41593 -2.44382,0 -4.9321,0.58897 -5.52953,1.30883 -1.93659,2.33344 -7.99381,21.93564 -9.7928,31.69117 -2.2061,11.9632 -2.47715,44.99246 -0.48416,59 3.07545,21.61553 10.21733,44.49967 18.32752,58.72533 3.97874,6.97891 4.34383,7.31184 10.705,9.7621 8.46136,3.25923 8.30392,3.13147 11.10578,9.01257 1.65605,3.47604 6.42377,8.979 15.64255,18.05481 13.69188,13.47955 17.27178,18.69518 17.31549,25.22731 0.027,4.04164 -2.01754,9.09205 -5.56214,13.73925 -2.64462,3.46728 -2.65711,3.5547 -0.80119,5.61071 1.03691,1.14871 4.81029,3.56837 8.38529,5.37704 3.575,1.80866 7.51037,4.37326 8.74528,5.6991 l 2.24527,2.41062 -3.06583,4.16889 c -1.68621,2.29288 -7.81904,7.83822 -13.62853,12.32297 l -10.5627,8.1541 -22.11674,0.81911 c -25.24263,0.93489 -129.87492,0.89675 -157.65259,-0.0575 z"
       id="path134"
       inkscape:connector-curvature="0" />
  </g>
</svg>
