<?xml version="1.0" encoding="UTF-8" standalone="no"?>
<!-- Created with Inkscape (http://www.inkscape.org/) -->

<svg
   xmlns:dc="http://purl.org/dc/elements/1.1/"
   xmlns:cc="http://creativecommons.org/ns#"
   xmlns:rdf="http://www.w3.org/1999/02/22-rdf-syntax-ns#"
   xmlns:svg="http://www.w3.org/2000/svg"
   xmlns="http://www.w3.org/2000/svg"
   xmlns:sodipodi="http://sodipodi.sourceforge.net/DTD/sodipodi-0.dtd"
   xmlns:inkscape="http://www.inkscape.org/namespaces/inkscape"
   version="1.1"
   id="svg3748"
   width="933.33331"
   height="933.33331"
   viewBox="0 0 933.33331 933.33331"
   sodipodi:docname="Queen.svg"
   inkscape:version="0.92.4 (5da689c313, 2019-01-14)">
  <metadata
     id="metadata3754">
    <rdf:RDF>
      <cc:Work
         rdf:about="">
        <dc:format>image/svg+xml</dc:format>
        <dc:type
           rdf:resource="http://purl.org/dc/dcmitype/StillImage" />
        <dc:title></dc:title>
      </cc:Work>
    </rdf:RDF>
  </metadata>
  <defs
     id="defs3752" />
  <sodipodi:namedview
     pagecolor="#ffffff"
     bordercolor="#666666"
     borderopacity="1"
     objecttolerance="10"
     gridtolerance="10"
     guidetolerance="10"
     inkscape:pageopacity="0"
     inkscape:pageshadow="2"
     inkscape:window-width="1920"
     inkscape:window-height="1017"
     id="namedview3750"
     showgrid="false"
     inkscape:zoom="0.71518802"
     inkscape:cx="479.47946"
     inkscape:cy="430.25023"
     inkscape:window-x="-8"
     inkscape:window-y="-8"
     inkscape:window-maximized="1"
     inkscape:current-layer="svg3748" />
  <path
     style="fill:#000000;stroke-width:1.33333325"
     d="m 394.0004,889.21957 c -26.84171,-1.31464 -53.17581,-3.35021 -78,-6.02924 l -19.33333,-2.08647 -5.33333,-5.05525 c -2.93334,-2.78039 -12.33372,-9.62101 -20.88975,-15.20137 -8.55604,-5.58036 -16.81476,-11.74583 -18.35272,-13.70103 -2.66596,-3.38922 -2.69131,-3.71629 -0.54377,-7.01713 3.00893,-4.62483 4.92438,-6.06755 15.11957,-11.38808 13.43247,-7.00997 13.99687,-7.58572 12.27587,-12.52257 -0.80327,-2.30424 -3.28064,-6.45448 -5.50528,-9.22275 -5.35767,-6.66691 -6.35771,-12.2006 -3.53879,-19.58183 2.98752,-7.82272 10.0062,-14.02566 32.94605,-29.11694 26.90976,-17.70296 35.72525,-28.17159 35.79287,-42.50496 0.028,-5.92556 0.33844,-6.43037 6.81848,-11.08581 7.5738,-5.44124 10.25982,-10.40247 20.60558,-38.05951 36.98268,-98.86478 49.10606,-229.56722 31.11516,-335.45327 l -1.38309,-8.14019 -8.89676,0.0472 c -6.47659,0.0344 -10.35233,-0.70713 -14.24757,-2.72577 -20.86412,-10.81249 -24.35928,-36.22161 -5.95062,-43.25993 3.28246,-1.255 7.0181,-2.60034 8.30143,-2.98963 1.9934,-0.60468 2.33333,-2.42889 2.33333,-12.52173 v -11.81394 l 6.77395,-3.17273 c 12.33789,-5.77877 14.56757,-13.53264 7.73987,-26.91604 -2.52186,-4.94325 -2.6155,-6.09513 -1.13375,-13.94804 3.02455,-16.0295 -0.54117,-31.29816 -13.94571,-59.71644 -7.61632,-16.147 -14.75209,-35.16261 -13.61992,-36.29478 1.36716,-1.36716 6.04696,1.19015 10.91135,5.96258 10.63729,10.4362 16.47468,12.1148 21.93125,6.30655 2.23258,-2.37648 3.29168,-5.37076 3.71799,-10.51153 l 0.59612,-7.18845 5.20111,-0.69761 c 6.30057,-0.84508 14.15797,-4.7769 23.39832,-11.70842 5.28981,-3.96808 15.3684,-9.63939 20.06445,-11.29045 0.16593,-0.0583 -0.88407,-3.22675 -2.33333,-7.0409 -7.31468,-19.250671 0.7558,-32.239563 20.03163,-32.239563 19.27584,0 27.34632,12.988892 20.03164,32.239563 -1.44926,3.81415 -2.49926,6.98256 -2.33333,7.0409 4.69605,1.65106 14.77464,7.32237 20.06445,11.29045 9.24035,6.93152 17.09775,10.86334 23.39832,11.70842 l 5.20111,0.69761 0.59612,7.18845 c 0.42631,5.14077 1.48541,8.13505 3.71799,10.51153 5.45657,5.80825 11.29396,4.12965 21.93125,-6.30655 4.86439,-4.77243 9.54419,-7.32974 10.91135,-5.96258 1.13217,1.13217 -6.0036,20.14778 -13.61992,36.29478 -13.40454,28.41828 -16.97026,43.68694 -13.94571,59.71644 1.48175,7.85291 1.38811,9.00479 -1.13375,13.94804 -6.8277,13.3834 -4.59802,21.13727 7.73987,26.91604 l 6.77395,3.17273 v 11.81394 c 0,10.09284 0.33993,11.91705 2.33333,12.52173 1.28333,0.38929 5.01897,1.73463 8.30143,2.98963 18.40866,7.03832 14.9135,32.44744 -5.95062,43.25993 -3.89524,2.01864 -7.77098,2.76012 -14.24757,2.72577 l -8.89676,-0.0472 -1.38309,8.14019 c -9.54871,56.19925 -10.76226,123.28089 -3.39151,187.47351 5.88085,51.217 18.41093,104.95149 34.50667,147.97976 10.34576,27.65704 13.03178,32.61827 20.60558,38.05951 6.48004,4.65544 6.79054,5.16025 6.81848,11.08581 0.0676,14.33337 8.88311,24.802 35.7929,42.50496 22.9398,15.09128 29.9585,21.29422 32.946,29.11694 2.8189,7.38123 1.8189,12.91492 -3.5388,19.58183 -2.2246,2.76827 -4.702,6.91851 -5.5052,9.22275 -1.721,4.93685 -1.1566,5.5126 12.2758,12.52257 10.1952,5.32053 12.1107,6.76325 15.1196,11.38808 2.1475,3.30084 2.1222,3.62791 -0.5438,7.01713 -1.5379,1.9552 -9.7967,8.12067 -18.3527,13.70103 -8.556,5.58036 -17.9564,12.42098 -20.8897,15.20137 l -5.3334,5.05525 -19.33331,2.08188 c -49.64469,5.34591 -95.62329,7.4953 -155.33333,7.26146 -25.66667,-0.10054 -56.26667,-0.65296 -68,-1.22763 z"
     id="path3758"
     inkscape:connector-curvature="0" />
</svg>
