<?xml version="1.0" encoding="UTF-8" standalone="no"?>
<!-- Created with Inkscape (http://www.inkscape.org/) -->

<svg
   xmlns:dc="http://purl.org/dc/elements/1.1/"
   xmlns:cc="http://creativecommons.org/ns#"
   xmlns:rdf="http://www.w3.org/1999/02/22-rdf-syntax-ns#"
   xmlns:svg="http://www.w3.org/2000/svg"
   xmlns="http://www.w3.org/2000/svg"
   xmlns:sodipodi="http://sodipodi.sourceforge.net/DTD/sodipodi-0.dtd"
   xmlns:inkscape="http://www.inkscape.org/namespaces/inkscape"
   version="1.1"
   id="svg3723"
   width="666.66669"
   height="666.66669"
   viewBox="0 0 666.66669 666.66669"
   sodipodi:docname="Rook.svg"
   inkscape:version="0.92.4 (5da689c313, 2019-01-14)">
  <metadata
     id="metadata3729">
    <rdf:RDF>
      <cc:Work
         rdf:about="">
        <dc:format>image/svg+xml</dc:format>
        <dc:type
           rdf:resource="http://purl.org/dc/dcmitype/StillImage" />
        <dc:title></dc:title>
      </cc:Work>
    </rdf:RDF>
  </metadata>
  <defs
     id="defs3727" />
  <sodipodi:namedview
     pagecolor="#ffffff"
     bordercolor="#666666"
     borderopacity="1"
     objecttolerance="10"
     gridtolerance="10"
     guidetolerance="10"
     inkscape:pageopacity="0"
     inkscape:pageshadow="2"
     inkscape:window-width="1920"
     inkscape:window-height="1017"
     id="namedview3725"
     showgrid="false"
     inkscape:zoom="0.70799998"
     inkscape:cx="1213.0421"
     inkscape:cy="319.87183"
     inkscape:window-x="-8"
     inkscape:window-y="-8"
     inkscape:window-maximized="1"
     inkscape:current-layer="svg3723" />
  <path
     style="fill:#000000;stroke-width:1.33333337"
     d="m 256.0002,655.15429 c -46.94383,-1.52537 -70.10104,-3.32392 -75.33334,-5.85092 -7.28014,-3.51602 -32.68945,-22.86294 -38.55725,-29.3579 -7.28942,-8.06851 -6.29127,-10.90334 7.22392,-20.51665 8.75345,-6.22629 15.72837,-12.5278 17.52995,-15.83746 1.04442,-1.91871 0.31309,-3.51322 -3.59588,-7.83999 -8.461,-9.36531 -11.76534,-18.42808 -12.30596,-33.75144 l -0.47043,-13.33333 12.1928,-13.33334 c 21.99051,-24.04753 36.0698,-44.18837 47.43404,-67.85576 7.00197,-14.58244 7.13231,-15.07828 8.44907,-32.14424 1.68409,-21.82692 3.77346,-70.6167 4.76774,-111.33334 1.67202,-68.47158 3.45852,-123.04987 4.70051,-143.6021 1.30115,-21.53107 1.29507,-21.61737 -1.84837,-26.24949 -1.7346,-2.55608 -4.17939,-8.73022 -5.43286,-13.72031 -3.04825,-12.13514 -6.22617,-17.28114 -15.07889,-24.417192 -13.20588,-10.64509 -16.59829,-22.064113 -16.04369,-54.003922 l 0.36864,-21.230241 12.66666,-1.639527 c 6.96667,-0.90174 20.76667,-2.929649 30.66667,-4.506465 11.4921,-1.830397 27.23007,-3.126507 43.52912,-3.584867 29.62775,-0.833187 27.71572,-1.7483323 28.77488,13.772331 0.356,5.21669 1.06864,10.16669 1.58366,11.000001 1.31098,2.121222 49.58037,2.121222 50.89136,0 0.51501,-0.833311 1.22765,-5.783311 1.58365,-11.000001 1.05916,-15.5206633 -0.85286,-14.605518 28.77488,-13.772331 16.29906,0.45836 32.03703,1.75447 43.52913,3.584867 9.9,1.576816 23.7,3.604725 30.66666,4.506465 l 12.66667,1.639527 0.36864,21.230241 c 0.5546,31.939809 -2.83781,43.358832 -16.04369,54.003922 -8.85272,7.136052 -12.03064,12.282052 -15.0789,24.417192 -1.25346,4.99009 -3.69825,11.16423 -5.43285,13.72031 -3.14344,4.63212 -3.14952,4.71842 -1.84837,26.24949 1.24198,20.55223 3.02849,75.13052 4.7005,143.6021 0.99428,40.71664 3.08366,89.50642 4.76775,111.33334 1.31676,17.06596 1.44709,17.5618 8.44907,32.14424 11.36424,23.66739 25.44353,43.80823 47.43404,67.85576 l 12.1928,13.33334 -0.47043,13.33333 c -0.54063,15.32336 -3.84496,24.38613 -12.30596,33.75144 -3.90897,4.32677 -4.64031,5.92128 -3.59588,7.83999 1.80157,3.30966 8.77649,9.61117 17.52995,15.83746 13.51519,9.61331 14.51333,12.44814 7.22392,20.51665 -5.88676,6.51594 -31.30358,25.85957 -38.55726,29.34425 -4.21265,2.02376 -10.6566,2.88051 -30.66666,4.07721 -23.48743,1.40468 -169.2756,2.72072 -198.00001,1.78736 z"
     id="path3746"
     inkscape:connector-curvature="0" />
</svg>
