<?xml version="1.0" encoding="UTF-8" standalone="no"?>
<!-- Created with Inkscape (http://www.inkscape.org/) -->

<svg
   xmlns:dc="http://purl.org/dc/elements/1.1/"
   xmlns:cc="http://creativecommons.org/ns#"
   xmlns:rdf="http://www.w3.org/1999/02/22-rdf-syntax-ns#"
   xmlns:svg="http://www.w3.org/2000/svg"
   xmlns="http://www.w3.org/2000/svg"
   xmlns:sodipodi="http://sodipodi.sourceforge.net/DTD/sodipodi-0.dtd"
   xmlns:inkscape="http://www.inkscape.org/namespaces/inkscape"
   version="1.1"
   id="svg3796"
   width="800"
   height="800"
   viewBox="0 0 800 800"
   sodipodi:docname="wb.svg"
   inkscape:version="0.92.4 (5da689c313, 2019-01-14)">
  <metadata
     id="metadata3802">
    <rdf:RDF>
      <cc:Work
         rdf:about="">
        <dc:format>image/svg+xml</dc:format>
        <dc:type
           rdf:resource="http://purl.org/dc/dcmitype/StillImage" />
        <dc:title />
      </cc:Work>
    </rdf:RDF>
  </metadata>
  <defs
     id="defs3800" />
  <sodipodi:namedview
     pagecolor="#ffffff"
     bordercolor="#666666"
     borderopacity="1"
     objecttolerance="10"
     gridtolerance="10"
     guidetolerance="10"
     inkscape:pageopacity="0"
     inkscape:pageshadow="2"
     inkscape:window-width="1920"
     inkscape:window-height="1017"
     id="namedview3798"
     showgrid="false"
     inkscape:zoom="0.59"
     inkscape:cx="148.52067"
     inkscape:cy="369.25746"
     inkscape:window-x="-8"
     inkscape:window-y="-8"
     inkscape:window-maximized="1"
     inkscape:current-layer="svg3796" />
  <path
     style="fill:#ffefe5;stroke-width:1.33333337;fill-opacity:1"
     d="m 297.99994,784.51536 c -2.93333,-0.25767 -13.73333,-1.10838 -24,-1.89047 -10.26667,-0.78208 -19.64521,-1.71028 -20.84123,-2.06267 -1.196,-0.35237 -2.5427,-2.48145 -2.99268,-4.73128 -1.02733,-5.1367 -8.31318,-12.07156 -19.41201,-18.47685 -5.56657,-3.21256 -9.42151,-6.52169 -10.97776,-9.42349 -2.36001,-4.40048 -2.35071,-4.52362 0.57925,-7.66948 1.63776,-1.75846 6.94622,-5.20296 11.79656,-7.65444 8.26951,-4.17962 15.84787,-10.99358 15.84787,-14.24934 0,-0.79118 -1.52763,-3.44134 -3.39473,-5.88924 -8.49284,-11.13468 -10.74358,-23.06048 -6.0747,-32.18744 1.39182,-2.72078 7.52234,-9.74688 13.62338,-15.61354 18.3185,-17.61478 20.36136,-19.82491 25.55057,-27.64279 2.74039,-4.12856 6.2348,-10.77889 7.76536,-14.77851 1.88989,-4.93858 5.43147,-9.99522 11.03707,-15.7587 9.44368,-9.70964 15.81394,-21.80228 24.83985,-47.15334 7.87952,-22.13121 10.19936,-30.59202 14.02896,-51.16569 6.75264,-36.27707 7.01897,-74.4416 0.70367,-100.83431 -4.06724,-16.9977 -4.42358,-17.60296 -10.99655,-18.67776 -9.09687,-1.48752 -17.67419,-5.70606 -20.16083,-9.91562 -4.04308,-6.84439 -2.97016,-13.42902 3.73532,-22.92387 8.38551,-11.87377 10.09034,-15.24588 10.5588,-20.88512 0.36628,-4.40912 1.09968,-5.28513 6.93007,-8.27757 6.97112,-3.57794 7.16079,-4.1216 5.06912,-14.53016 -0.50217,-2.4989 -0.15475,-9.4179 0.77204,-15.37556 2.16305,-13.90472 0.6688,-23.22524 -8.34435,-52.04843 -9.68286,-30.96492 -11.70105,-39.78687 -12.51348,-54.69924 -1.46628,-26.91391 5.34988,-43.79159 32.30474,-79.9906 11.72293,-15.743322 19.4483,-27.746035 25.31633,-39.333334 4.6448,-9.171833 10.18384,-19.637956 12.309,-23.258052 3.32371,-5.661772 3.69549,-7.246271 2.65927,-11.333333 -2.61144,-10.299935 5.494,-21.418007 15.61442,-21.418007 10.12043,0 18.22587,11.118072 15.61443,21.418007 -1.03623,4.087062 -0.66444,5.671561 2.65927,11.333333 2.12516,3.620096 7.6642,14.086219 12.309,23.258052 5.86802,11.587299 13.5934,23.590012 25.31633,39.333334 26.95485,36.19901 33.77101,53.07669 32.30473,79.9906 -0.81242,14.91237 -2.83061,23.73432 -12.51348,54.69924 -9.01314,28.82319 -10.5074,38.14371 -8.34434,52.04843 0.92678,5.95766 1.27421,12.87666 0.77204,15.37556 -2.09167,10.40856 -1.902,10.95222 5.06912,14.53016 5.83038,2.99244 6.56378,3.86845 6.93006,8.27757 0.46847,5.63924 2.1733,9.01135 10.5588,20.88512 6.70548,9.49485 7.7784,16.07948 3.73532,22.92387 -2.48664,4.20956 -11.06396,8.4281 -20.16082,9.91562 -6.57298,1.0748 -6.92931,1.68006 -10.99655,18.67776 -11.64888,48.68264 -0.81401,123.7801 25.87375,179.33334 3.83286,7.9785 7.88788,13.8455 13.69873,19.82 5.6056,5.76348 9.14717,10.82012 11.03707,15.7587 1.53056,3.99962 5.02497,10.64995 7.76536,14.77851 5.18921,7.81788 7.23206,10.02801 25.55057,27.64279 6.10104,5.86666 12.23156,12.89276 13.62337,15.61354 4.66888,9.12696 2.41815,21.05276 -6.07469,32.18744 -1.86711,2.4479 -3.39473,5.09806 -3.39473,5.88924 0,3.25576 7.57836,10.06972 15.84786,14.24934 4.85035,2.45148 10.1588,5.89598 11.79656,7.65444 2.92996,3.14586 2.93927,3.269 0.57926,7.66948 -1.55626,2.9018 -5.41119,6.21093 -10.97776,9.42349 -11.15392,6.43708 -18.3838,13.33577 -19.42338,18.5336 -0.96462,4.82313 -0.93521,4.81348 -21.15588,6.94452 -13.54597,1.42761 -215.37877,2.90892 -229.33333,1.68315 z"
     id="path3806"
     inkscape:connector-curvature="0" />
</svg>
