<?xml version="1.0" encoding="UTF-8" standalone="no"?>
<!-- Created with Inkscape (http://www.inkscape.org/) -->

<svg
   xmlns:dc="http://purl.org/dc/elements/1.1/"
   xmlns:cc="http://creativecommons.org/ns#"
   xmlns:rdf="http://www.w3.org/1999/02/22-rdf-syntax-ns#"
   xmlns:svg="http://www.w3.org/2000/svg"
   xmlns="http://www.w3.org/2000/svg"
   xmlns:sodipodi="http://sodipodi.sourceforge.net/DTD/sodipodi-0.dtd"
   xmlns:inkscape="http://www.inkscape.org/namespaces/inkscape"
   version="1.1"
   id="svg3772"
   width="733.33331"
   height="733.33331"
   viewBox="0 0 733.33331 733.33331"
   sodipodi:docname="wh.svg"
   inkscape:version="0.92.4 (5da689c313, 2019-01-14)">
  <metadata
     id="metadata3778">
    <rdf:RDF>
      <cc:Work
         rdf:about="">
        <dc:format>image/svg+xml</dc:format>
        <dc:type
           rdf:resource="http://purl.org/dc/dcmitype/StillImage" />
        <dc:title />
      </cc:Work>
    </rdf:RDF>
  </metadata>
  <defs
     id="defs3776" />
  <sodipodi:namedview
     pagecolor="#ffffff"
     bordercolor="#666666"
     borderopacity="1"
     objecttolerance="10"
     gridtolerance="10"
     guidetolerance="10"
     inkscape:pageopacity="0"
     inkscape:pageshadow="2"
     inkscape:window-width="1920"
     inkscape:window-height="1017"
     id="namedview3774"
     showgrid="false"
     inkscape:zoom="0.64363638"
     inkscape:cx="154.7624"
     inkscape:cy="348.49485"
     inkscape:window-x="-8"
     inkscape:window-y="-8"
     inkscape:window-maximized="1"
     inkscape:current-layer="svg3772" />
  <path
     style="fill:#ffefe5;stroke-width:1.33333325;fill-opacity:1"
     d="m 363.82732,714.06515 c -0.46183,-0.47055 -33.16183,-1.05391 -72.66667,-1.29636 l -71.82699,-0.44081 -4.97592,-9.32556 c -5.44399,-10.20279 -6.07176,-10.6159 -21.59104,-14.20802 -10.09262,-2.33605 -13.40962,-4.52997 -14.71551,-9.73303 -1.16004,-4.62198 2.91883,-8.8032 14.10127,-14.45508 8.14389,-4.11614 15.84786,-10.98479 15.84786,-14.12952 0,-2.2824 -2.893,-6.96607 -7.45401,-12.06782 -11.02199,-12.32865 -9.10688,-26.8382 6.94072,-52.58552 9.11165,-14.61905 12.44421,-23.60442 12.48164,-33.65346 l 0.0316,-8.49676 7.81636,-8.35571 c 4.299,-4.59564 8.09445,-9.81046 8.43435,-11.5885 0.48352,-2.52935 -2.93255,-8.08643 -15.69919,-25.53864 -14.50935,-19.83454 -16.41783,-23.07502 -17.22561,-29.24808 -0.49959,-3.81821 -2.99423,-17.74221 -5.5436,-30.94221 -3.92211,-20.30772 -4.5696,-26.25696 -4.20874,-38.67032 l 0.42648,-14.67032 6.3543,-9.93174 c 6.35925,-9.93945 7.47053,-12.85119 10.27749,-26.92855 3.33977,-16.74946 24.73883,-42.18124 62.03488,-73.72552 23.70665,-20.05063 36.21,-32.15437 39.33053,-38.07355 1.35313,-2.56666 5.80897,-8.56666 9.90187,-13.33333 7.83664,-9.12668 12.16444,-16.65084 13.54352,-23.54627 0.80688,-4.03438 0.63273,-4.21422 -6.3064,-6.51272 -3.92491,-1.30006 -13.43619,-5.20093 -21.13619,-8.6686 -17.04457,-7.67596 -22.51155,-9.25754 -32,-9.25754 -12.34056,0 -16.63142,1.95326 -27.86262,12.68349 -5.66702,5.41424 -11.91624,10.45717 -13.88719,11.20652 -6.37521,2.42385 -11.51787,-1.16916 -18.94771,-13.23821 -2.03152,-3.3 -7.50565,-10.06126 -12.16473,-15.02499 -6.33413,-6.74832 -8.47108,-9.98852 -8.47108,-12.84449 0,-5.08757 2.64815,-5.65677 19.04767,-4.09421 18.96929,1.80741 27.619,-0.75859 27.619,-8.19339 0,-3.22061 -2.03335,-3.45056 -24.28571,-2.74641 l -19.61903,0.62081 -4.00513,-4.28751 c -7.3336,-7.85064 -6.62205,-15.3895 2.42996,-25.74515 2.09195,-2.39323 7.10541,-9.45133 11.14103,-15.684656 4.0356,-6.233333 8.77986,-12.663053 10.5428,-14.288265 6.70962,-6.185463 21.64054,-9.810195 59.19117,-14.369651 49.07208,-5.958411 76.14345,-11.70543 91.38811,-19.400917 10.30986,-5.204393 20.37892,-14.520865 25.51491,-23.607828 l 3.95644,-7 7.53939,0.0232 c 17.47698,0.0537 31.83086,5.18124 57.3178,20.475387 17.10458,10.26409 24.75943,13.637399 36.22161,15.961994 7.9858,1.619572 8.701,2.049865 9.1042,5.477269 0.2406,2.045789 -0.5988,7.547822 -1.8653,12.226741 l -2.3027,8.507125 7.008,13.664164 c 3.8545,7.515277 7.8438,14.611397 8.8653,15.769147 1.1537,1.30763 1.8571,5.1814 1.8571,10.22666 0,4.46692 1.5,15.05948 3.3334,23.53903 7.0863,32.77554 2.925,72.13859 -11.9785,113.31026 -2.6175,7.23091 -10.0764,26.42328 -16.57529,42.64973 -20.76936,51.85667 -24.73877,68.28684 -23.71704,98.16932 1.05325,30.80454 7.0528,47.21144 32.66673,89.33333 15.047,24.74459 15.1008,25.33333 2.3126,25.33333 -3.9697,0 -8.0062,0.85759 -9.7346,2.06819 -2.83372,1.98481 -2.87012,2.26698 -0.9031,7 1.1272,2.71249 3.7251,7.03181 5.7729,9.59848 6.0813,7.62193 7.2497,10.78768 8.1564,22.09933 1.0198,12.72385 4.7969,21.64949 17.0262,40.23445 13.22,20.09046 13.8635,29.75069 2.8307,42.49809 -5.0868,5.87729 -9.1904,12.5132 -9.1904,14.86166 0,0.63762 5.6438,3.71887 12.5417,6.84723 13.2323,6.00115 17.0123,8.99181 19.4304,15.37275 2.2969,6.06154 -3.343,10.87523 -17.4872,14.92542 -6.1334,1.75627 -11.7515,4.17857 -12.4849,5.38291 -3.0454,5.00138 -9.3301,11.38773 -13.1979,13.41128 -10.5506,5.51989 -16.51786,6.00352 -82.13539,6.65689 -34.83334,0.34685 -63.71119,0.24564 -64.173,-0.22492 z"
     id="path3782"
     inkscape:connector-curvature="0" />
</svg>
