<?xml version="1.0" encoding="UTF-8" standalone="no"?>
<!-- Created with Inkscape (http://www.inkscape.org/) -->

<svg
   xmlns:dc="http://purl.org/dc/elements/1.1/"
   xmlns:cc="http://creativecommons.org/ns#"
   xmlns:rdf="http://www.w3.org/1999/02/22-rdf-syntax-ns#"
   xmlns:svg="http://www.w3.org/2000/svg"
   xmlns="http://www.w3.org/2000/svg"
   xmlns:sodipodi="http://sodipodi.sourceforge.net/DTD/sodipodi-0.dtd"
   xmlns:inkscape="http://www.inkscape.org/namespaces/inkscape"
   version="1.1"
   id="svg3784"
   width="1066.6667"
   height="1066.6667"
   viewBox="0 0 1066.6667 1066.6667"
   sodipodi:docname="wk.svg"
   inkscape:version="0.92.4 (5da689c313, 2019-01-14)">
  <metadata
     id="metadata3790">
    <rdf:RDF>
      <cc:Work
         rdf:about="">
        <dc:format>image/svg+xml</dc:format>
        <dc:type
           rdf:resource="http://purl.org/dc/dcmitype/StillImage" />
        <dc:title />
      </cc:Work>
    </rdf:RDF>
  </metadata>
  <defs
     id="defs3788" />
  <sodipodi:namedview
     pagecolor="#ffffff"
     bordercolor="#666666"
     borderopacity="1"
     objecttolerance="10"
     gridtolerance="10"
     guidetolerance="10"
     inkscape:pageopacity="0"
     inkscape:pageshadow="2"
     inkscape:window-width="1920"
     inkscape:window-height="1017"
     id="namedview3786"
     showgrid="false"
     inkscape:zoom="0.31289473"
     inkscape:cx="-250.32707"
     inkscape:cy="1183.8163"
     inkscape:window-x="-8"
     inkscape:window-y="-8"
     inkscape:window-maximized="1"
     inkscape:current-layer="svg3784" />
  <path
     style="fill:#ffefe5;stroke-width:1.33333337;fill-opacity:1"
     d="m 385.33367,1032.4882 c -39.51747,-2.9769 -40.39285,-3.1254 -45.33334,-7.6923 -2.56667,-2.3725 -7.96667,-6.9283 -12,-10.1239 -15.92416,-12.6169 -29.33333,-27.46885 -29.33333,-32.48961 0,-2.57715 8.96426,-9.87088 20,-16.27291 4.76666,-2.76521 10.60021,-6.48473 12.96342,-8.26558 4.27292,-3.21995 4.28576,-3.26494 2.31538,-8.10756 -1.08978,-2.67831 -4.22331,-6.93614 -6.96343,-9.46184 -7.38337,-6.80564 -9.63012,-10.76492 -9.63992,-16.98767 -0.0196,-12.48763 4.62516,-17.55763 33.82264,-36.91864 12.60293,-8.35708 25.20631,-17.73152 28.00748,-20.8321 5.68976,-6.29788 10.08151,-14.95833 10.14347,-20.00273 0.0317,-2.58177 1.79097,-4.46068 7.8026,-8.33333 4.26889,-2.75 8.69367,-5 9.83283,-5 1.13914,0 2.39909,-1.05 2.79988,-2.33334 0.40078,-1.28333 3.79826,-10.13333 7.54996,-19.66666 23.20997,-58.97834 40.12985,-139.32613 45.45949,-215.87436 2.04311,-29.34451 0.91399,-101.66359 -1.9692,-126.12566 -4.025,-34.1498 -8.77041,-59.01744 -11.92437,-62.4881 -1.57679,-1.73512 -9.01686,-6.04598 -16.53348,-9.57967 -14.82056,-6.9674 -15.30871,-7.52937 -16.94734,-19.51027 -2.14876,-15.71079 4.68144,-29.72979 15.47084,-31.75389 l 4.66724,-0.87558 -0.58602,-14.22958 -0.58604,-14.22958 5.33882,-3 c 2.93636,-1.65 7.29542,-3 9.6868,-3 h 4.34799 l -0.95677,-15.66666 c -1.50923,-24.71266 -2.86478,-36.63141 -4.73883,-41.66667 -0.95528,-2.56667 -6.69201,-15.46667 -12.74832,-28.66667 -11.50255,-25.0704 -17.20112,-41.05868 -18.72285,-52.53011 l -0.90127,-6.79402 7.40017,-3.38792 c 10.62332,-4.86351 22.05971,-6.88061 52.2755,-9.22006 14.66667,-1.13557 27.41667,-2.06539 28.33333,-2.06628 1.158,-0.001 1.66667,-2.58295 1.66667,-8.45955 0,-4.98544 1.09483,-11.6401 2.66667,-16.20873 2.65358,-7.71279 3.40522,-20.31083 1.50088,-25.155722 -0.5381,-1.36898 -3.64592,-3.76898 -6.90628,-5.33333 L 496.667,91.333339 496.29478,73.639748 c -0.42354,-20.132931 -0.11507,-20.704634 9.57633,-17.749201 12.59381,3.840531 15.62616,1.466432 9.54935,-7.476402 -5.34816,-7.870529 -4.66779,-9.994159 4.62488,-14.435649 10.11421,-4.834152 15.12912,-4.834152 25.24333,0 9.29267,4.44149 9.97304,6.56512 4.62488,14.435649 -6.07681,8.942834 -3.04447,11.316933 9.54935,7.476402 9.69141,-2.955433 9.99986,-2.38373 9.57633,17.749201 l -0.37223,17.693591 -5.92793,2.844279 c -3.26036,1.56435 -6.36819,3.96435 -6.90628,5.33333 -1.90435,4.844892 -1.15271,17.442932 1.50088,25.155722 1.57184,4.56863 2.66667,11.22329 2.66667,16.20873 0,5.8766 0.50866,8.45843 1.66666,8.45955 0.91667,8.9e-4 13.66667,0.93071 28.33334,2.06628 30.21579,2.33945 41.65217,4.35655 52.27549,9.22006 l 7.40019,3.38792 -0.9013,6.79402 c -1.5217,11.47143 -7.22029,27.45971 -18.72283,52.53011 -6.05631,13.2 -11.79304,26.1 -12.74832,28.66667 -1.87406,5.03526 -3.2296,16.95401 -4.73883,41.66667 l -0.95677,15.66666 h 4.34798 c 2.39139,0 6.75044,1.35 9.6868,3 l 5.33883,3 -0.58604,14.22958 -0.58603,14.22958 4.66724,0.87558 c 10.78937,2.0241 17.61957,16.0431 15.47087,31.75389 -1.6386,11.9809 -2.1268,12.54287 -16.94736,19.51027 -7.51663,3.53369 -14.95669,7.84455 -16.53348,9.57967 -3.15396,3.47066 -7.89937,28.3383 -11.92437,62.4881 -2.88319,24.46207 -4.01231,96.78115 -1.9692,126.12566 5.32964,76.54823 22.24952,156.89602 45.45951,215.87436 3.7517,9.53333 7.1492,18.38333 7.5499,19.66666 0.4008,1.28334 1.6608,2.33334 2.7999,2.33334 1.1392,0 5.564,2.25 9.8329,5 6.0116,3.87265 7.7708,5.75156 7.8026,8.33333 0.062,5.0444 4.4537,13.70485 10.1434,20.00273 2.8012,3.10058 15.4046,12.47502 28.0075,20.8321 29.1975,19.36101 33.8423,24.43101 33.8226,36.91864 -0.01,6.22275 -2.2565,10.18203 -9.6399,16.98767 -2.7401,2.5257 -5.8736,6.78353 -6.9634,9.46184 -1.9704,4.84262 -1.9576,4.88761 2.3154,8.10756 2.3632,1.78085 8.1967,5.50037 12.9634,8.26558 11.0357,6.40203 20,13.69576 20,16.27291 0,5.02076 -13.4092,19.87271 -29.3333,32.48961 -4.0334,3.1956 -9.4334,7.7429 -12,10.1051 -7.9891,7.3527 -14.4911,7.6323 -184.00005,7.9139 -82.5,0.137 -152.7,0.046 -156,-0.2028 z"
     id="path3794"
     inkscape:connector-curvature="0" />
</svg>
