<?xml version="1.0" encoding="UTF-8" standalone="no"?>
<!-- Created with Inkscape (http://www.inkscape.org/) -->

<svg
   xmlns:dc="http://purl.org/dc/elements/1.1/"
   xmlns:cc="http://creativecommons.org/ns#"
   xmlns:rdf="http://www.w3.org/1999/02/22-rdf-syntax-ns#"
   xmlns:svg="http://www.w3.org/2000/svg"
   xmlns="http://www.w3.org/2000/svg"
   xmlns:sodipodi="http://sodipodi.sourceforge.net/DTD/sodipodi-0.dtd"
   xmlns:inkscape="http://www.inkscape.org/namespaces/inkscape"
   version="1.1"
   id="svg3760"
   width="666.66669"
   height="666.66669"
   viewBox="0 0 666.66669 666.66669"
   sodipodi:docname="wp.svg"
   inkscape:version="0.92.4 (5da689c313, 2019-01-14)">
  <metadata
     id="metadata3766">
    <rdf:RDF>
      <cc:Work
         rdf:about="">
        <dc:format>image/svg+xml</dc:format>
        <dc:type
           rdf:resource="http://purl.org/dc/dcmitype/StillImage" />
        <dc:title />
      </cc:Work>
    </rdf:RDF>
  </metadata>
  <defs
     id="defs3764" />
  <sodipodi:namedview
     pagecolor="#ffffff"
     bordercolor="#666666"
     borderopacity="1"
     objecttolerance="10"
     gridtolerance="10"
     guidetolerance="10"
     inkscape:pageopacity="0"
     inkscape:pageshadow="2"
     inkscape:window-width="1920"
     inkscape:window-height="1017"
     id="namedview3762"
     showgrid="false"
     inkscape:zoom="0.70799998"
     inkscape:cx="114.93588"
     inkscape:cy="280.80432"
     inkscape:window-x="-8"
     inkscape:window-y="-8"
     inkscape:window-maximized="1"
     inkscape:current-layer="svg3760" />
  <path
     style="fill:#ffefe5;stroke-width:1.33333337;fill-opacity:1"
     d="m 225.28594,606.70223 -24.71446,-0.84898 -14.19147,-10.9554 c -7.80531,-6.02547 -16.03096,-13.45674 -18.27924,-16.51391 l -4.08777,-5.55852 2.99369,-3.21416 c 1.64655,-1.76779 6.89371,-5.18725 11.66037,-7.5988 4.76667,-2.41156 9.79784,-5.63777 11.18039,-7.16939 2.47456,-2.74134 2.45791,-2.8579 -1.06825,-7.48094 -4.72614,-6.19627 -7.45224,-12.93015 -7.41619,-18.319 0.0583,-8.70951 4.83148,-15.66369 23.08732,-33.63642 12.29171,-12.10108 18.64867,-19.43836 20.85673,-24.07308 3.73582,-7.84147 3.5259,-7.67112 14.80771,-12.01676 8.48156,-3.26701 8.96835,-3.71092 14.27334,-13.01613 10.81358,-18.96755 20.33609,-49.47974 24.43669,-78.30045 2.65732,-18.67672 2.29592,-62.71573 -0.64555,-78.66667 -2.39865,-13.00737 -10.47494,-39.14364 -13.05706,-42.25489 -0.79658,-0.95981 -4.11428,-1.74511 -7.37271,-1.74511 -11.56225,0 -14.07277,-4.50137 -7.00197,-12.55457 4.3394,-4.94231 10.8335,-7.84126 28.58622,-12.76082 11.6821,-3.23729 20.66667,-7.62156 20.66667,-10.08486 0,-0.86674 -7.05,-9.0538 -15.66667,-18.1935 -19.61094,-20.8013 -23.07137,-26.8202 -24.00276,-41.74925 -0.82093,-13.15863 1.56871,-34.00909 5.06112,-44.15995 7.71791,-22.432493 22.97236,-37.254564 46.60831,-45.2872 10.12605,-3.441324 31.20728,-3.441324 41.33334,0 17.80933,6.052474 33.21126,17.995233 40.51594,31.416336 8.17404,15.018404 12.44922,37.261834 11.15348,58.030814 -0.93138,14.92905 -4.39181,20.94795 -24.00276,41.74925 -8.61666,9.1397 -15.66666,17.32676 -15.66666,18.1935 0,2.4633 8.98457,6.84757 20.66666,10.08486 17.75272,4.91956 24.24683,7.81851 28.58623,12.76082 7.0708,8.0532 4.56028,12.55457 -7.00197,12.55457 -3.25843,0 -6.57614,0.7853 -7.37271,1.74511 -2.58212,3.11125 -10.65841,29.24752 -13.05707,42.25489 -2.94146,15.95094 -3.30286,59.98995 -0.64554,78.66667 4.1006,28.82071 13.6231,59.3329 24.43669,78.30045 5.30499,9.30521 5.79177,9.74912 14.27333,13.01613 11.28182,4.34564 11.0719,4.17529 14.80771,12.01676 2.20807,4.63472 8.56503,11.972 20.85674,24.07308 18.25584,17.97273 23.02904,24.92691 23.08732,33.63642 0.036,5.38885 -2.69006,12.12273 -7.41619,18.319 -3.52616,4.62304 -3.54281,4.7396 -1.06825,7.48094 1.38254,1.53162 6.41372,4.75783 11.18038,7.16939 4.76667,2.41155 10.01383,5.83101 11.66038,7.5988 l 2.99369,3.21416 -4.08777,5.55852 c -2.24828,3.05717 -10.42539,10.45096 -18.17138,16.43063 l -14.0836,10.87213 -29.48898,1.09215 c -33.65685,1.24652 -173.16657,1.19566 -210.20347,-0.0767 z"
     id="path3770"
     inkscape:connector-curvature="0" />
</svg>
